<svg xmlns="http://www.w3.org/2000/svg" width="19.633" height="26.001" viewBox="0 0 19.633 26.001">
  <g id="doors" transform="translate(-188.417 44.767)">
    <g id="Group_22" data-name="Group 22" transform="translate(186.881 -333.962)">
      <path id="Path_229" data-name="Path 229" d="M10.645,289.212a15.887,15.887,0,0,0-3.139.457l-1.926.482-.331,1.661a7.708,7.708,0,0,0-.151,1.51v5.125s-2.272,2.27-3.406,3.4a.482.482,0,1,0,.681.681L5.1,299.8v3.457a.253.253,0,0,0-.047.042l-3.365,3.367a.482.482,0,1,0,.683.681L5.1,304.614v9.137A1.445,1.445,0,0,0,6.547,315.2h9.63a1.445,1.445,0,0,0,1.444-1.444v-9.115l2.71,2.714a.482.482,0,1,0,.683-.681L17.65,303.3c-.01-.007-.018-.018-.028-.025v-3.455l2.71,2.712a.482.482,0,1,0,.681-.681l-3.389-3.389v-5.144a7.677,7.677,0,0,0-.149-1.51l-.333-1.661-1.924-.482a15.88,15.88,0,0,0-4.567-.457Zm.734,5.28a22.8,22.8,0,0,1,3.935.352.467.467,0,0,1,.374.514l-.433,3.466a17.737,17.737,0,0,0-7.794,0l-.433-3.461a.474.474,0,0,1,.38-.519A22.246,22.246,0,0,1,11.379,294.491Zm5.274,5.547v3.124h-.961v-1.249a1.926,1.926,0,0,1,.423-1.2ZM6.066,300.1l.512.6a1.857,1.857,0,0,1,.448,1.2v1.251H6.066Zm0,4.019h.959v1.128a1.872,1.872,0,0,1-.6,1.362l-.361.34Zm9.626,0h.961v2.889l-.4-.4a1.926,1.926,0,0,1-.564-1.364Zm-8.185,3.848h7.7l.48,2.938a.49.49,0,0,1-.384.525,20.142,20.142,0,0,1-7.89,0,.5.5,0,0,1-.388-.53Z" transform="translate(0 0)" fill="#9c9c9c" fill-rule="evenodd"/>
    </g>
  </g>
</svg>
