<?xml version="1.0" encoding="utf-8"?>
<!-- Generator: Adobe Illustrator 24.1.0, SVG Export Plug-In . SVG Version: 6.00 Build 0)  -->
<svg version="1.1" id="Layer_1" xmlns="http://www.w3.org/2000/svg" xmlns:xlink="http://www.w3.org/1999/xlink" x="0px" y="0px"
	 viewBox="0 0 136.9 136.9" style="enable-background:new 0 0 136.9 136.9;" xml:space="preserve">
<style type="text/css">
	.st0{display:none;fill:#3A312A;}
	.st1{fill:#3A312A;}
	.st2{fill:#61ADFF;}
	.st3{fill:#F5E1C5;}
	.st4{fill:#87796F;}
	.st5{fill-rule:evenodd;clip-rule:evenodd;fill:#F4E0C4;}
	.st6{fill:#F4E0C4;}
	.st7{fill:#F59689;}
	.st8{fill:#ADADAD;}
	.st9{fill:#D6DF58;}
	.st10{fill:#21B208;}
	.st11{fill-rule:evenodd;clip-rule:evenodd;fill:#F7E3C7;}
	.st12{fill:#F7E3C7;}
	.st13{fill:#CE9E32;}
	.st14{fill-rule:evenodd;clip-rule:evenodd;fill:#F6E2C6;}
	.st15{fill:#F6E2C6;}
	.st16{fill:#62D8F4;}
</style>
<path class="st0" d="M-187.6-113.1c-2.1,0-3.9-1.5-4.3-3.6c-0.1-0.4-7.3-36.6-33.9-37.8c-2.3-0.1-4.1-1.9-4.2-4.2
	c-0.1-2.3,1.5-4.3,3.7-4.6c1.3-0.2,32.1-5.4,34.6-35.4c0.2-2.1,1.9-3.8,4-4c2.2-0.2,4.1,1.2,4.7,3.2c0.1,0.3,9.6,34.2,35,35.8
	c2.1,0.1,3.8,1.7,4.1,3.8c0.3,2.1-0.9,4.1-2.9,4.8c-0.4,0.1-35.7,12.7-36.3,37.8c-0.1,2.3-1.8,4.1-4,4.3
	C-187.3-113.1-187.4-113.1-187.6-113.1z M-210.4-159.5c11.4,5.8,18.4,16.9,22.4,26.1c6-11.8,17.5-20,26.4-24.8
	c-12.2-5.4-20-16.6-24.6-25.7C-191.5-171-201.7-163.6-210.4-159.5z"/>
<path class="st0" d="M-251.4-86.8c-2.1,0-3.9-1.5-4.3-3.6c0-0.2-5-24.9-22.8-25.7c-2.3-0.1-4.1-1.9-4.2-4.2
	c-0.1-2.3,1.5-4.3,3.8-4.6c0.9-0.1,21.7-3.7,23.4-23.9c0.2-2.1,1.9-3.8,4-4c2.1-0.2,4.1,1.2,4.7,3.2l0,0c0.1,0.2,6.6,23.3,23.6,24.3
	c2.1,0.1,3.8,1.7,4.1,3.8c0.3,2.1-0.9,4.1-2.9,4.8c-0.2,0.1-24.4,8.7-24.8,25.5c-0.1,2.3-1.8,4.1-4.1,4.3
	C-251.2-86.8-251.3-86.8-251.4-86.8z M-264.7-120.7c6.2,3.9,10.4,10,13.1,15.6c4.1-6.6,10.4-11.4,15.8-14.6
	c-6.7-3.7-11.4-9.9-14.6-15.4C-253.8-128.5-259.3-123.8-264.7-120.7z"/>
<path class="st0" d="M-251.4-165.3c-2.1,0-3.9-1.5-4.3-3.6c0-0.2-5-24.9-22.8-25.7c-2.3-0.1-4.1-1.9-4.2-4.2
	c-0.1-2.3,1.5-4.3,3.8-4.6c0.9-0.1,21.7-3.7,23.4-23.9c0.2-2.1,1.9-3.8,4-4c2.1-0.2,4.1,1.2,4.7,3.2l0,0c0.1,0.2,6.6,23.3,23.6,24.3
	c2.1,0.1,3.8,1.7,4.1,3.8c0.3,2.1-0.9,4.1-2.9,4.8c-0.2,0.1-24.4,8.7-24.8,25.5c-0.1,2.3-1.8,4.1-4.1,4.3
	C-251.2-165.3-251.3-165.3-251.4-165.3z M-264.7-199.2c6.2,3.9,10.4,10,13.1,15.6c4.1-6.6,10.4-11.4,15.8-14.6
	c-6.7-3.7-11.4-9.9-14.6-15.4C-253.8-207-259.3-202.3-264.7-199.2z"/>
<g>
	<path class="st1" d="M64.4,85.2c-6.5,0-14.4-5.8-21.1-15.4C37,60.6,33,49.8,33,41.6c0-17.3,14.1-31.3,31.4-31.3
		c17.3,0,31.4,14.1,31.4,31.3c0,8.3-3.8,19-10,28.1C79,79.6,71.3,85.2,64.4,85.2z M64.4,12C48,12,34.7,25.3,34.7,41.6
		c0,7.8,3.8,18.3,10,27.2c6.3,9.2,13.7,14.7,19.7,14.7c6.2,0,13.6-5.5,19.9-14.7c6-8.8,9.7-19.2,9.7-27.2C94,25.3,80.7,12,64.4,12z"
		/>
	<g>
		<path class="st2" d="M18.9,10.5c0,0,1.9,7.2,7.5,7.5c0,0-7.4,2.6-7.6,8.1c0,0-1.5-7.7-7.3-8C11.5,18.1,18.3,17.1,18.9,10.5z"/>
		<path class="st2" d="M6.6,20.1c0,0,1.4,5.1,5.3,5.3c0,0-5.3,1.8-5.4,5.7c0,0-1-5.4-5.2-5.6C1.3,25.5,6.2,24.8,6.6,20.1z"/>
		<path class="st2" d="M6.6,5c0,0,1.4,5.1,5.3,5.3c0,0-5.3,1.8-5.4,5.7c0,0-1-5.4-5.2-5.6C1.3,10.4,6.2,9.7,6.6,5z"/>
		<path class="st3" d="M22.4,131.6h18.1v-7.7c0-4.7-3.8-8.5-8.5-8.5h-5.6v-4.7H17v4.7h-5.6c-4.7,0-8.5,3.8-8.5,8.5v7.7h9.3H22.4z"/>
		<path class="st1" d="M40.5,132.4H22.4c-0.5,0-0.9-0.4-0.9-0.9c0-0.5,0.4-0.9,0.9-0.9h17.3v-6.8c0-4.2-3.4-7.6-7.6-7.6h-5.6
			c-0.5,0-0.9-0.4-0.9-0.9v-3.9h-7.7v3.9c0,0.5-0.4,0.9-0.9,0.9h-5.6c-4.2,0-7.6,3.4-7.6,7.6v6.8h8.5c0.5,0,0.9,0.4,0.9,0.9
			c0,0.5-0.4,0.9-0.9,0.9H3c-0.5,0-0.9-0.4-0.9-0.9v-7.7c0-5.1,4.2-9.3,9.3-9.3h4.7v-3.9c0-0.5,0.4-0.9,0.9-0.9h9.4
			c0.5,0,0.9,0.4,0.9,0.9v3.9H32c5.1,0,9.3,4.2,9.3,9.3v7.7C41.4,132,41,132.4,40.5,132.4z"/>
		<path class="st4" d="M23.1,68.8c-5-0.3-9.4,2-11.6,4.1c-3.3,2.7-4.9,7.5-4.9,12c0,0.8,0.1,5.4,0.4,6.6c0-0.5,0.2-1,0.4-1.6
			c1.7-5.1,6.9-8.4,12.3-7.7c0.7,0.1,1.5,0.1,2.3,0.1c6.2,0,11.2-2.7,11.2-6.1C33.2,72.8,28.6,69.2,23.1,68.8z"/>
		<path class="st1" d="M7,92.3c-0.4,0-0.7-0.3-0.8-0.7c-0.3-1.3-0.4-6.2-0.4-6.8c0-5.1,2-9.9,5.2-12.6c2.5-2.4,7.2-4.6,12.2-4.3l0,0
			c5.8,0.4,10.9,4.2,10.9,8.2c0,3.9-5.3,7-12.1,7c-0.8,0-1.6,0-2.4-0.1c-5-0.6-9.8,2.4-11.4,7.2c-0.2,0.5-0.3,1-0.3,1.4
			C7.8,92,7.5,92.3,7,92.3C7.1,92.3,7,92.3,7,92.3z M22.2,69.7c-4.2,0-8,1.9-10.1,3.9c0,0,0,0-0.1,0c-2.8,2.3-4.6,6.8-4.6,11.3
			c0,0.4,0,1.4,0.1,2.5c2.4-4.2,7.2-6.7,12.2-6.1c0.7,0.1,1.5,0.1,2.2,0.1c5.6,0,10.4-2.4,10.4-5.2c0-2.7-4-6.1-9.3-6.5
			C22.8,69.7,22.5,69.7,22.2,69.7z"/>
		<path class="st4" d="M36.7,91.5c-0.1,0,0,0-0.2,0.1c-0.3-3.8-2.1-7.3-4.8-9.7c-0.5-0.5-1-1-1.4-1.7c1.8-1.1,2.8-2.5,2.8-4
			c0-0.5-0.1-0.9-0.2-1.4c2.6,2.6,4.3,6.2,4.3,10.1C37.2,85.4,37.3,91.3,36.7,91.5z"/>
		<path class="st1" d="M36.5,92.4c-0.2,0-0.3,0-0.5-0.1c-0.2-0.1-0.4-0.4-0.4-0.6c-0.3-3.5-1.9-6.8-4.5-9.1
			c-0.6-0.5-1.1-1.2-1.5-1.8c-0.2-0.4-0.1-0.9,0.3-1.2c1.6-1,2.4-2.1,2.4-3.3c0-0.4-0.1-0.7-0.2-1.1c-0.1-0.4,0-0.8,0.4-1
			c0.3-0.2,0.8-0.2,1.1,0.1c2.9,2.9,4.5,6.7,4.5,10.7l0,0.1c0,6.6-0.5,7-1.1,7.2c-0.1,0-0.1,0.1-0.2,0.1
			C36.7,92.4,36.6,92.4,36.5,92.4z M31.6,80.4c0.2,0.3,0.5,0.6,0.7,0.8c1.8,1.7,3.2,3.7,4.1,5.9c0-0.6,0-1.3,0-2.1l0-0.1
			c0-2.8-0.9-5.4-2.5-7.7C33.6,78.4,32.8,79.5,31.6,80.4z"/>
		<path class="st5" d="M10.5,94.4c0,1.8-1.5,3.3-3.3,3.3c-1.8,0-3.3-1.5-3.3-3.3c0-1.8,1.5-3.3,3.3-3.3C9,91,10.5,92.5,10.5,94.4z"
			/>
		<path class="st1" d="M7.2,98.6c-2.3,0-4.2-1.9-4.2-4.2s1.9-4.2,4.2-4.2s4.2,1.9,4.2,4.2S9.5,98.6,7.2,98.6z M7.2,91.9
			c-1.4,0-2.5,1.1-2.5,2.5s1.1,2.5,2.5,2.5s2.5-1.1,2.5-2.5S8.6,91.9,7.2,91.9z"/>
		<path class="st5" d="M39.6,94.4c0,1.8-1.5,3.3-3.3,3.3c-1.8,0-3.3-1.5-3.3-3.3c0-1.8,1.5-3.3,3.3-3.3C38.1,91,39.6,92.5,39.6,94.4
			z"/>
		<path class="st1" d="M36.3,98.6c-2.3,0-4.2-1.9-4.2-4.2s1.9-4.2,4.2-4.2c2.3,0,4.2,1.9,4.2,4.2S38.6,98.6,36.3,98.6z M36.3,91.9
			c-1.4,0-2.5,1.1-2.5,2.5s1.1,2.5,2.5,2.5c1.4,0,2.5-1.1,2.5-2.5S37.7,91.9,36.3,91.9z"/>
		<path class="st6" d="M36.5,92.8c0,8.2-7.9,20.7-14.8,20.7C15.1,113.5,7,100.9,7,92.8c0-0.4,0-0.9,0.1-1.3c0-0.1,0-0.1,0-0.2
			c0.1-0.4,0.2-0.9,0.3-1.4c1.7-5.1,6.9-8.4,12.3-7.8c0.8,0.1,1.5,0.1,2.3,0.1c3.4,0,6.4-0.8,8.4-2.1c0.4,0.6,0.8,1.2,1.4,1.6
			C34.7,84.6,36.5,88.4,36.5,92.8z"/>
		<path class="st1" d="M21.7,114.3c-7.3,0-15.6-13-15.6-21.6c0-0.4,0-0.9,0.1-1.4c0-0.1,0-0.2,0-0.2c0.1-0.5,0.2-1,0.4-1.6
			c1.8-5.5,7.3-9,13.2-8.3c0.7,0.1,1.5,0.1,2.2,0.1c3.1,0,6-0.7,8-1.9c0.2-0.1,0.4-0.2,0.6-0.1c0.2,0.1,0.4,0.2,0.5,0.4
			c0.3,0.5,0.7,1,1.2,1.5c3.2,3,5.1,7.2,5.1,11.5C37.4,101.5,29.1,114.3,21.7,114.3z M18.3,82.9c-4.6,0-8.7,2.9-10.1,7.2
			C8,90.6,7.9,91,7.9,91.4c0,0.1,0,0.1,0,0.2c0,0.4,0,0.8,0,1.2c0,7.5,7.8,19.9,13.9,19.9c6.3,0,13.9-12.2,13.9-19.9
			c0-3.9-1.7-7.6-4.5-10.3c-0.4-0.4-0.7-0.7-1-1.2c-2.2,1.1-5.1,1.8-8.2,1.8c-0.8,0-1.6,0-2.4-0.1C19.1,82.9,18.7,82.9,18.3,82.9z"
			/>
		<path class="st1" d="M18,92.6c0,0.8-0.6,1.4-1.4,1.4c-0.8,0-1.4-0.6-1.4-1.4c0-0.8,0.6-1.4,1.4-1.4C17.3,91.2,18,91.8,18,92.6z"/>
		<path class="st1" d="M28.4,92.6c0,0.8-0.6,1.4-1.4,1.4c-0.8,0-1.4-0.6-1.4-1.4c0-0.8,0.6-1.4,1.4-1.4
			C27.8,91.2,28.4,91.8,28.4,92.6z"/>
		<path class="st7" d="M16.1,96.9c0,1-1.1,1.9-2.5,1.9c-1.4,0-2.5-0.8-2.5-1.9c0-1,1.1-1.9,2.5-1.9C15,95,16.1,95.9,16.1,96.9z"/>
		<path class="st7" d="M32.3,96.9c0,1-1.1,1.9-2.5,1.9s-2.5-0.8-2.5-1.9c0-1,1.1-1.9,2.5-1.9S32.3,95.9,32.3,96.9z"/>
		<path class="st1" d="M21.7,105.6c-2.3,0-3.9-1-4.9-3c-0.2-0.4,0-0.9,0.4-1.1c0.4-0.2,0.9,0,1.1,0.4c0.7,1.4,1.7,2.1,3.3,2.1
			c1.9,0,3-1.2,3.3-2c0.2-0.4,0.7-0.7,1.1-0.5c0.4,0.2,0.7,0.7,0.5,1.1C26.1,104,24.3,105.6,21.7,105.6z"/>
		<path class="st1" d="M15.1,98.7c-3.4,0-6.2-2.8-6.2-6.2c0-3.4,2.8-6.2,6.2-6.2c3.4,0,6.2,2.8,6.2,6.2
			C21.3,95.9,18.5,98.7,15.1,98.7z M15.1,88.1c-2.5,0-4.5,2-4.5,4.5c0,2.5,2,4.5,4.5,4.5c2.5,0,4.5-2,4.5-4.5
			C19.6,90.1,17.6,88.1,15.1,88.1z"/>
		<path class="st1" d="M28.4,98.7c-3.4,0-6.2-2.8-6.2-6.2c0-3.4,2.8-6.2,6.2-6.2c3.4,0,6.2,2.8,6.2,6.2
			C34.5,95.9,31.8,98.7,28.4,98.7z M28.4,88.1c-2.5,0-4.5,2-4.5,4.5c0,2.5,2,4.5,4.5,4.5c2.5,0,4.5-2,4.5-4.5
			C32.8,90.1,30.8,88.1,28.4,88.1z"/>
		<path class="st1" d="M23.1,93.4h-2.6c-0.5,0-0.9-0.4-0.9-0.9c0-0.5,0.4-0.9,0.9-0.9h2.6c0.5,0,0.9,0.4,0.9,0.9
			C23.9,93,23.5,93.4,23.1,93.4z"/>
		<path class="st1" d="M10,92.2C9.9,92.2,9.9,92.2,10,92.2l-3-0.3c-0.5,0-0.8-0.5-0.8-0.9c0-0.5,0.5-0.8,0.9-0.8l2.9,0.3
			c0.5,0,0.8,0.5,0.8,0.9C10.8,91.8,10.4,92.2,10,92.2z"/>
		<path class="st1" d="M33.5,92.2c-0.4,0-0.8-0.3-0.8-0.8c-0.1-0.5,0.3-0.9,0.7-0.9l2.9-0.3c0.5-0.1,0.9,0.3,0.9,0.7
			c0.1,0.5-0.3,0.9-0.7,0.9l-2.9,0.3C33.6,92.2,33.6,92.2,33.5,92.2z"/>
		<path class="st8" d="M22.4,131.6h18.1v-7.7c0-4.7-3.8-8.5-8.5-8.5h-6.2l-4.1,5.4l-4.1-5.4h-6.2c-4.7,0-8.5,3.8-8.5,8.5v7.7h9.3
			H22.4z"/>
		<path class="st1" d="M40.5,132.4H22.4c-0.5,0-0.9-0.4-0.9-0.9c0-0.5,0.4-0.9,0.9-0.9h17.3v-6.8c0-4.2-3.4-7.6-7.6-7.6h-5.8
			l-3.9,5.1c-0.2,0.2-0.4,0.3-0.7,0.3l0,0c-0.3,0-0.5-0.1-0.7-0.3l-3.8-5.1h-5.8c-4.2,0-7.6,3.4-7.6,7.6v6.8h8.5
			c0.5,0,0.9,0.4,0.9,0.9c0,0.5-0.4,0.9-0.9,0.9H3c-0.5,0-0.9-0.4-0.9-0.9v-7.7c0-5.1,4.2-9.3,9.3-9.3h6.2c0.3,0,0.5,0.1,0.7,0.3
			l3.4,4.5l3.4-4.5c0.2-0.2,0.4-0.3,0.7-0.3H32c5.1,0,9.3,4.2,9.3,9.3v7.7C41.4,132,41,132.4,40.5,132.4z"/>
		
			<rect x="15.4" y="113.3" transform="matrix(0.7991 -0.6012 0.6012 0.7991 -67.5445 34.1495)" class="st4" width="3.8" height="9.7"/>
		<path class="st1" d="M18.7,124c-0.3,0-0.5-0.1-0.7-0.3l-5.8-7.7c-0.3-0.4-0.2-0.9,0.2-1.2l3-2.3c0.2-0.1,0.4-0.2,0.6-0.2
			c0.2,0,0.4,0.2,0.6,0.3l5.8,7.7c0.1,0.2,0.2,0.4,0.2,0.6c0,0.2-0.2,0.4-0.3,0.6l-3,2.3C19.1,123.9,18.9,124,18.7,124z M14.1,115.6
			l4.8,6.4l1.7-1.2l-4.8-6.4L14.1,115.6z"/>
		
			<rect x="21.3" y="116.3" transform="matrix(0.6017 -0.7987 0.7987 0.6017 -83.9438 67.9476)" class="st4" width="9.7" height="3.8"/>
		<path class="st1" d="M24.8,124c-0.2,0-0.4-0.1-0.5-0.2l-3-2.3c-0.2-0.1-0.3-0.3-0.3-0.6c0-0.2,0-0.5,0.2-0.6l5.8-7.7
			c0.1-0.2,0.3-0.3,0.6-0.3c0.2,0,0.5,0,0.6,0.2l3,2.3c0.4,0.3,0.5,0.8,0.2,1.2l-5.8,7.7C25.3,123.9,25,124,24.8,124z M22.9,120.7
			l1.7,1.2l4.8-6.4l-1.7-1.2L22.9,120.7z"/>
		<path class="st1" d="M9.8,132.4c-0.5,0-0.9-0.4-0.9-0.9v-6.1c0-0.5,0.4-0.9,0.9-0.9c0.5,0,0.9,0.4,0.9,0.9v6.1
			C10.7,132,10.3,132.4,9.8,132.4z"/>
		<path class="st1" d="M33.7,132.4c-0.5,0-0.9-0.4-0.9-0.9v-6.1c0-0.5,0.4-0.9,0.9-0.9c0.5,0,0.9,0.4,0.9,0.9v6.1
			C34.5,132,34.1,132.4,33.7,132.4z"/>
		<path class="st9" d="M38.9,89.6h-1.8c-0.5,0-0.9,0.4-0.9,0.9v9.3c0,0.5,0.4,0.9,0.9,0.9h1.8c1.8,0,3.3-1.5,3.3-3.3v-4.6
			C42.2,91,40.7,89.6,38.9,89.6z"/>
		<path class="st1" d="M38.9,101.5h-1.8c-1,0-1.8-0.8-1.8-1.8v-9.3c0-1,0.8-1.8,1.8-1.8h1.8c2.3,0,4.1,1.8,4.1,4.1v4.6
			C43,99.7,41.2,101.5,38.9,101.5z M37.2,90.4C37.1,90.4,37.1,90.5,37.2,90.4l-0.1,9.3c0,0,0,0.1,0.1,0.1h1.8c1.3,0,2.4-1.1,2.4-2.4
			v-4.6c0-1.3-1.1-2.4-2.4-2.4H37.2z"/>
		<path class="st3" d="M125.8,131.6v-7.7c0-4.7-3.8-8.5-8.5-8.5h-5.6v-4.7h-9.4v4.7h-5.6c-4.7,0-8.5,3.8-8.5,8.5v7.7H125.8z"/>
		<path class="st1" d="M125.8,132.4H88.2c-0.5,0-0.9-0.4-0.9-0.9v-7.7c0-5.1,4.2-9.3,9.3-9.3h4.7v-3.9c0-0.5,0.4-0.9,0.9-0.9h9.4
			c0.5,0,0.9,0.4,0.9,0.9v3.9h4.7c5.1,0,9.3,4.2,9.3,9.3v7.7C126.6,132,126.2,132.4,125.8,132.4z M89.1,130.7h35.8v-6.8
			c0-4.2-3.4-7.6-7.6-7.6h-5.6c-0.5,0-0.9-0.4-0.9-0.9v-3.9h-7.7v3.9c0,0.5-0.4,0.9-0.9,0.9h-5.6c-4.2,0-7.6,3.4-7.6,7.6V130.7z"/>
		<path class="st10" d="M125.8,123.9v7.7H88.2v-7.7c0-4.7,3.8-8.5,8.5-8.5h6.2l4.1,5.4l4.1-5.4h6.2
			C122,115.4,125.8,119.2,125.8,123.9z"/>
		<path class="st1" d="M125.8,132.4H88.2c-0.5,0-0.9-0.4-0.9-0.9v-7.7c0-5.1,4.2-9.3,9.3-9.3h6.2c0.3,0,0.5,0.1,0.7,0.3l3.4,4.5
			l3.4-4.5c0.2-0.2,0.4-0.3,0.7-0.3h6.2c5.1,0,9.3,4.2,9.3,9.3v7.7C126.6,132,126.2,132.4,125.8,132.4z M89.1,130.7h35.8v-6.8
			c0-4.2-3.4-7.6-7.6-7.6h-5.8l-3.9,5.1c-0.2,0.2-0.4,0.3-0.7,0.3l0,0c-0.3,0-0.5-0.1-0.7-0.3l-3.8-5.1h-5.8c-4.2,0-7.6,3.4-7.6,7.6
			V130.7z"/>
		<path class="st11" d="M96,95.1c0,1.8-1.5,3.3-3.3,3.3s-3.3-1.5-3.3-3.3s1.5-3.3,3.3-3.3S96,93.3,96,95.1z"/>
		<path class="st1" d="M92.7,99.2c-2.3,0-4.1-1.8-4.1-4.1s1.9-4.1,4.1-4.1c2.3,0,4.1,1.8,4.1,4.1S95,99.2,92.7,99.2z M92.7,92.7
			c-1.3,0-2.4,1.1-2.4,2.4s1.1,2.4,2.4,2.4c1.3,0,2.4-1.1,2.4-2.4S94.1,92.7,92.7,92.7z"/>
		<path class="st11" d="M124.6,95.1c0,1.8-1.5,3.3-3.3,3.3c-1.8,0-3.3-1.5-3.3-3.3s1.5-3.3,3.3-3.3
			C123.1,91.8,124.6,93.3,124.6,95.1z"/>
		<path class="st1" d="M121.3,99.2c-2.3,0-4.1-1.8-4.1-4.1s1.9-4.1,4.1-4.1c2.3,0,4.1,1.8,4.1,4.1S123.6,99.2,121.3,99.2z
			 M121.3,92.7c-1.3,0-2.4,1.1-2.4,2.4s1.1,2.4,2.4,2.4s2.4-1.1,2.4-2.4S122.6,92.7,121.3,92.7z"/>
		<path class="st12" d="M121.5,93.5c0,8-7.7,20.3-14.5,20.3c-6.5,0-14.5-12.3-14.5-20.3c0-8,6.5-14.5,14.5-14.5
			C115,79,121.5,85.5,121.5,93.5z"/>
		<path class="st1" d="M107,114.6c-7.1,0-15.4-12.8-15.4-21.2c0-8.5,6.9-15.4,15.4-15.4c8.5,0,15.4,6.9,15.4,15.4
			C122.4,102,114.3,114.6,107,114.6z M107,79.8c-7.5,0-13.7,6.1-13.7,13.7c0,7.4,7.6,19.5,13.7,19.5c6.2,0,13.7-11.9,13.7-19.5
			C120.7,86,114.5,79.8,107,79.8z"/>
		<path class="st1" d="M103.3,93.3c0,0.8-0.6,1.4-1.4,1.4c-0.8,0-1.4-0.6-1.4-1.4c0-0.8,0.6-1.4,1.4-1.4
			C102.7,91.9,103.3,92.5,103.3,93.3z"/>
		<path class="st1" d="M113.5,93.3c0,0.8-0.6,1.4-1.4,1.4c-0.8,0-1.4-0.6-1.4-1.4c0-0.8,0.6-1.4,1.4-1.4
			C112.9,91.9,113.5,92.5,113.5,93.3z"/>
		<path class="st7" d="M101.5,97.5c0,1-1.1,1.8-2.4,1.8c-1.3,0-2.4-0.8-2.4-1.8c0-1,1.1-1.8,2.4-1.8
			C100.4,95.7,101.5,96.5,101.5,97.5z"/>
		<path class="st7" d="M117.4,97.5c0,1-1.1,1.8-2.4,1.8c-1.3,0-2.4-0.8-2.4-1.8c0-1,1.1-1.8,2.4-1.8
			C116.3,95.7,117.4,96.5,117.4,97.5z"/>
		<path class="st4" d="M107.2,75.8c-8.3,0-15,6.4-15,14.4c0,0.8,0.2,1.5,0.4,2.2c0.1,0.4,2.3-0.8,2.5-0.9c0.9-0.6,1.7-1.5,2.2-2.5
			c0.2-0.4,0.4-0.8,0.6-1.2c0.5-1.3,1.8-4.9,3.2-4.6c1.8,0.4,3.9,0.6,6.1,0.6s4.3-0.2,6.1-0.6c1.4-0.3,2.7,3.3,3.2,4.6
			c0.2,0.4,0.3,0.8,0.6,1.2c0.9,1.6,2.5,3.1,4.4,3.4c0-0.1,0.1-0.1,0.2-0.2c0.6-0.2,0.5-1.6,0.5-2.1
			C122.2,82.2,115.5,75.8,107.2,75.8z"/>
		<path class="st1" d="M92.7,93.3c-0.1,0-0.2,0-0.3,0c-0.3-0.1-0.5-0.3-0.6-0.6c-0.3-0.8-0.5-1.5-0.5-2.5c0-8.4,7.1-15.2,15.9-15.2
			c8.7,0,15.9,6.8,15.9,15.2l0,0.2c0,0.8,0,2.2-1,2.7c0,0,0,0-0.1,0.1c-0.2,0.2-0.4,0.2-0.7,0.2c-1.9-0.3-3.8-1.7-5-3.8
			c-0.3-0.4-0.5-0.9-0.6-1.3l0-0.1c-1.4-3.6-2.1-4-2.2-4c-1.9,0.4-4,0.6-6.3,0.6c-2.2,0-4.3-0.2-6.3-0.6c-0.1,0-0.8,0.4-2.2,4l0,0.1
			c-0.2,0.5-0.4,0.9-0.6,1.3c-0.7,1.1-1.5,2.1-2.5,2.8C95.5,92.2,93.7,93.3,92.7,93.3z M121.6,92.2l0.3,0.8c0,0,0,0,0.1,0
			L121.6,92.2z M122.3,92.4L122.3,92.4L122.3,92.4z M113.5,82.2c1.6,0,2.8,2.4,3.8,5.1l0,0.1c0.1,0.4,0.3,0.7,0.5,1.1
			c0.9,1.5,2.2,2.6,3.4,2.9c0,0,0,0,0,0c0.1-0.2,0.1-0.5,0.1-1.1l0-0.2c0-7.4-6.4-13.5-14.2-13.5c-7.8,0-14.2,6.1-14.2,13.5
			c0,0.5,0.1,0.9,0.2,1.3c0.5-0.2,1.2-0.6,1.4-0.7c0.8-0.5,1.4-1.3,2-2.2c0.2-0.4,0.4-0.7,0.5-1.1l0-0.1c1.1-2.9,2.3-5.5,4.1-5.1
			c1.8,0.4,3.8,0.6,5.9,0.6c2.1,0,4.1-0.2,5.9-0.6C113.2,82.2,113.3,82.2,113.5,82.2z"/>
		<path class="st1" d="M107,106.1c-2.2,0-3.8-1-4.8-3c-0.2-0.4,0-0.9,0.4-1.1c0.4-0.2,0.9,0,1.1,0.4c0.7,1.4,1.7,2,3.2,2
			c1.8,0,2.9-1.2,3.2-1.9c0.2-0.4,0.7-0.7,1.1-0.5c0.4,0.2,0.7,0.7,0.5,1.1C111.3,104.5,109.5,106.1,107,106.1z"/>
		<path class="st4" d="M118.4,77.7c0,4.1-5.1,7.5-11.4,7.5c-6.3,0-11.4-3.3-11.4-7.5c0-4.1,11-8.9,11.4-8.9
			C107.1,68.8,118.4,73.6,118.4,77.7z"/>
		<path class="st1" d="M107,86c-6.7,0-12.2-3.7-12.2-8.3c0-4.8,11.7-9.7,12.2-9.7c0.5,0,12.2,4.9,12.2,9.7
			C119.2,82.3,113.8,86,107,86z M107,69.7c-1.9,0.6-10.5,4.9-10.5,8c0,3.6,4.7,6.6,10.5,6.6c5.8,0,10.5-3,10.5-6.6
			C117.5,74.7,109,70.5,107,69.7z M107.2,69.7"/>
		
			<rect x="100.7" y="113.3" transform="matrix(0.7991 -0.6012 0.6012 0.7991 -50.4181 85.4044)" class="st4" width="3.8" height="9.7"/>
		<path class="st1" d="M104,124c-0.3,0-0.5-0.1-0.7-0.3l-5.8-7.7c-0.3-0.4-0.2-0.9,0.2-1.2l3-2.3c0.2-0.1,0.4-0.2,0.6-0.2
			c0.2,0,0.4,0.2,0.6,0.3l5.8,7.7c0.1,0.2,0.2,0.4,0.2,0.6c0,0.2-0.2,0.4-0.3,0.6l-3,2.3C104.3,123.9,104.2,124,104,124z
			 M99.4,115.6l4.8,6.4l1.7-1.2l-4.8-6.4L99.4,115.6z"/>
		
			<rect x="106.6" y="116.3" transform="matrix(0.6017 -0.7987 0.7987 0.6017 -49.9883 136.0438)" class="st4" width="9.7" height="3.8"/>
		<path class="st1" d="M110,124c-0.2,0-0.4-0.1-0.5-0.2l-3-2.3c-0.2-0.1-0.3-0.3-0.3-0.6c0-0.2,0-0.5,0.2-0.6l5.8-7.7
			c0.1-0.2,0.3-0.3,0.6-0.3c0.2,0,0.5,0,0.6,0.2l3,2.3c0.4,0.3,0.5,0.8,0.2,1.2l-5.8,7.7C110.5,123.9,110.3,124,110,124z
			 M108.2,120.7l1.7,1.2l4.8-6.4l-1.7-1.2L108.2,120.7z"/>
		<path class="st1" d="M95.1,132.4c-0.5,0-0.9-0.4-0.9-0.9v-6.1c0-0.5,0.4-0.9,0.9-0.9s0.9,0.4,0.9,0.9v6.1
			C95.9,132,95.6,132.4,95.1,132.4z"/>
		<path class="st1" d="M118.9,132.4c-0.5,0-0.9-0.4-0.9-0.9v-6.1c0-0.5,0.4-0.9,0.9-0.9c0.5,0,0.9,0.4,0.9,0.9v6.1
			C119.8,132,119.4,132.4,118.9,132.4z"/>
		<path class="st1" d="M106.4,114.7c-9,0-16.4-7.3-16.4-16.4c0-0.5,0.4-0.9,0.9-0.9c0.5,0,0.9,0.4,0.9,0.9c0,8.1,6.6,14.7,14.7,14.7
			c0.5,0,0.9,0.4,0.9,0.9C107.2,114.3,106.9,114.7,106.4,114.7z"/>
		<path class="st9" d="M91.6,89.6h-1.8c-1.8,0-3.2,1.5-3.2,3.2v4.6c0,1.8,1.5,3.2,3.2,3.2h1.8c0.5,0,0.9-0.4,0.9-0.9v-9.3
			C92.5,90,92.1,89.6,91.6,89.6z"/>
		<path class="st1" d="M91.6,101.5h-1.8c-2.3,0-4.1-1.8-4.1-4.1v-4.6c0-2.3,1.8-4.1,4.1-4.1h1.8c1,0,1.8,0.8,1.8,1.8v9.3
			C93.3,100.8,92.5,101.5,91.6,101.5z M89.8,90.4c-1.3,0-2.4,1.1-2.4,2.4v4.6c0,1.3,1.1,2.4,2.4,2.4h1.8c0,0,0,0,0,0v-9.3
			c0,0,0,0,0,0H89.8z"/>
		<rect x="31.7" y="37" class="st13" width="65.5" height="74.9"/>
		<path class="st1" d="M97.1,112.7H31.7c-0.5,0-0.9-0.4-0.9-0.9V37c0-0.5,0.4-0.9,0.9-0.9h65.5c0.5,0,0.9,0.4,0.9,0.9v74.9
			C98,112.3,97.6,112.7,97.1,112.7z M32.5,111h63.8V37.8H32.5V111z"/>
		<path class="st3" d="M81.2,131.6h21.9v-15.8c0-9.7-7.8-17.5-17.5-17.5H74.1v-9.8H54.7v9.8H43.1c-9.7,0-17.5,7.8-17.5,17.5v15.8
			h45.5H81.2z"/>
		<path class="st1" d="M103.1,132.4H81.2c-0.5,0-0.9-0.4-0.9-0.9c0-0.5,0.4-0.9,0.9-0.9h21.1v-15c0-9.2-7.5-16.6-16.6-16.6H74.1
			c-0.5,0-0.9-0.4-0.9-0.9v-8.9H55.5v8.9c0,0.5-0.4,0.9-0.9,0.9H43.1c-9.2,0-16.6,7.5-16.6,16.6v15h44.7c0.5,0,0.9,0.4,0.9,0.9
			c0,0.5-0.4,0.9-0.9,0.9H25.6c-0.5,0-0.9-0.4-0.9-0.9v-15.8c0-10.1,8.2-18.3,18.3-18.3h10.7v-8.9c0-0.5,0.4-0.9,0.9-0.9h19.4
			c0.5,0,0.9,0.4,0.9,0.9v8.9h10.7c10.1,0,18.3,8.2,18.3,18.3v15.8C104,132,103.6,132.4,103.1,132.4z"/>
		<ellipse class="st14" cx="34.4" cy="55" rx="6.9" ry="6.9"/>
		<path class="st1" d="M34.4,62.7c-4.3,0-7.7-3.5-7.7-7.7s3.5-7.7,7.7-7.7c4.3,0,7.7,3.5,7.7,7.7S38.6,62.7,34.4,62.7z M34.4,49
			c-3.3,0-6,2.7-6,6s2.7,6,6,6s6-2.7,6-6S37.7,49,34.4,49z"/>
		<path class="st14" d="M101.3,55c0,3.8-3.1,6.9-6.9,6.9c-3.8,0-6.9-3.1-6.9-6.9c0-3.8,3.1-6.9,6.9-6.9
			C98.2,48.1,101.3,51.2,101.3,55z"/>
		<path class="st1" d="M94.4,62.7c-4.3,0-7.7-3.5-7.7-7.7s3.5-7.7,7.7-7.7s7.7,3.5,7.7,7.7S98.7,62.7,94.4,62.7z M94.4,49
			c-3.3,0-6,2.7-6,6s2.7,6,6,6s6-2.7,6-6S97.8,49,94.4,49z"/>
		<path class="st15" d="M94.9,51.6c0,16.8-16.2,42.7-30.5,42.7c-13.6,0-30.5-25.8-30.5-42.7c0-16.8,13.7-30.5,30.5-30.5
			C81.2,21.2,94.9,34.8,94.9,51.6z"/>
		<path class="st1" d="M56.6,51.3c0,1.6-1.3,3-3,3c-1.6,0-3-1.3-3-3c0-1.6,1.3-3,3-3C55.3,48.3,56.6,49.7,56.6,51.3z"/>
		<path class="st1" d="M78.1,51.3c0,1.6-1.3,3-3,3c-1.6,0-3-1.3-3-3c0-1.6,1.3-3,3-3C76.8,48.3,78.1,49.7,78.1,51.3z"/>
		<path class="st7" d="M52.8,60.2c0,2.1-2.3,3.8-5.1,3.8c-2.8,0-5.1-1.7-5.1-3.8s2.3-3.8,5.1-3.8C50.5,56.3,52.8,58,52.8,60.2z"/>
		<path class="st7" d="M86.2,60.2c0,2.1-2.3,3.8-5.1,3.8c-2.8,0-5.1-1.7-5.1-3.8s2.3-3.8,5.1-3.8C83.9,56.3,86.2,58,86.2,60.2z"/>
		<path class="st1" d="M64.4,77.2c-4.3,0-7.4-1.9-9.2-5.7c-0.2-0.4,0-0.9,0.4-1.1c0.4-0.2,0.9,0,1.1,0.4c1.5,3.2,4,4.8,7.7,4.8
			c4.6,0,7-3.1,7.6-4.7c0.2-0.4,0.7-0.7,1.1-0.5c0.4,0.2,0.7,0.7,0.5,1.1C72.6,74.2,69.2,77.2,64.4,77.2z"/>
		<path class="st13" d="M99.5,40.5c0,3.1-0.4,6.2-1.2,9c-7.8-3.8-15.2-8.4-22.1-13.6c-2-1.5-4-3.1-5.9-4.8c-2.3-2-4.5-4.2-6.5-6.6
			C59.5,19.2,56.3,13.3,53.6,7c3.4-1.1,7-1.7,10.8-1.7c10.1,0,19.1,4.2,25.5,11C95.9,22.6,99.5,31.1,99.5,40.5z"/>
		<path class="st1" d="M98.4,50.4c-0.1,0-0.3,0-0.4-0.1c-7.7-3.7-15.2-8.3-22.3-13.7c-2.3-1.7-4.2-3.3-6-4.9
			c-2.5-2.2-4.7-4.4-6.6-6.7C59.3,20.4,56,14.8,52.8,7.4c-0.1-0.2-0.1-0.5,0-0.7c0.1-0.2,0.3-0.4,0.5-0.5c3.5-1.1,7.3-1.7,11-1.7
			c10,0,19.3,4,26.2,11.3c6.4,6.7,9.9,15.5,9.9,24.7c0,3.1-0.4,6.3-1.2,9.3c-0.1,0.2-0.2,0.4-0.5,0.6C98.6,50.3,98.5,50.4,98.4,50.4
			z M54.8,7.6c3,6.8,6.1,12,9.7,16.3c1.8,2.2,4,4.4,6.4,6.5c1.7,1.5,3.6,3.1,5.9,4.8c6.7,5.1,13.8,9.5,21,13.1
			c0.6-2.5,0.9-5.2,0.9-7.8c0-8.8-3.3-17.2-9.4-23.6C82.8,10,73.9,6.2,64.4,6.2C61.1,6.2,57.9,6.7,54.8,7.6z"/>
		<path class="st13" d="M89.9,16.3c-6,5.5-12.6,10.4-19.6,14.7C58,38.8,44.4,44.9,30.6,50c-0.9-3-1.3-6.2-1.3-9.5
			c0-15.6,10.2-28.9,24.4-33.4c3.4-1.1,7-1.7,10.8-1.7C74.4,5.3,83.5,9.6,89.9,16.3z"/>
		<path class="st1" d="M30.6,50.9c-0.1,0-0.3,0-0.4-0.1c-0.2-0.1-0.4-0.3-0.4-0.5c-0.9-3.2-1.3-6.5-1.3-9.8c0-15.7,10-29.5,25-34.2
			c3.5-1.1,7.3-1.7,11-1.7c10,0,19.3,4,26.2,11.3c0.2,0.2,0.2,0.4,0.2,0.6c0,0.2-0.1,0.4-0.3,0.6c-5.8,5.3-12.4,10.3-19.7,14.8
			c-11.3,7.1-24.4,13.3-39.9,19C30.8,50.9,30.7,50.9,30.6,50.9z M64.4,6.2c-3.6,0-7.1,0.6-10.5,1.6c-14.2,4.6-23.8,17.7-23.8,32.6
			c0,2.9,0.4,5.7,1,8.4c15.1-5.6,27.7-11.6,38.7-18.5c6.9-4.3,13.2-9.1,18.8-14.1C82.2,9.8,73.6,6.2,64.4,6.2z"/>
		<path class="st16" d="M81.2,131.6h21.9v-15.8c0-9.7-7.8-17.5-17.5-17.5H72.8l-8.5,11.2l-8.5-11.2H43.1c-9.7,0-17.5,7.8-17.5,17.5
			v15.8h45.5H81.2z"/>
		<path class="st1" d="M103.1,132.4H81.2c-0.5,0-0.9-0.4-0.9-0.9c0-0.5,0.4-0.9,0.9-0.9h21.1v-15c0-9.2-7.5-16.6-16.6-16.6H73.3
			L65.1,110c-0.2,0.2-0.4,0.3-0.7,0.3l0,0c-0.3,0-0.5-0.1-0.7-0.3l-8.2-10.9H43.1c-9.2,0-16.6,7.5-16.6,16.6v15h44.7
			c0.5,0,0.9,0.4,0.9,0.9c0,0.5-0.4,0.9-0.9,0.9H25.6c-0.5,0-0.9-0.4-0.9-0.9v-15.8c0-10.1,8.2-18.3,18.3-18.3h12.8
			c0.3,0,0.5,0.1,0.7,0.3l7.8,10.3l7.8-10.3c0.2-0.2,0.4-0.3,0.7-0.3h12.8c10.1,0,18.3,8.2,18.3,18.3v15.8
			C104,132,103.6,132.4,103.1,132.4z"/>
		<polygon class="st4" points="64.4,109.5 58.1,114.2 46.1,98.2 52.4,93.5 		"/>
		<path class="st1" d="M58.1,115c-0.3,0-0.5-0.1-0.7-0.3l-12-15.9c-0.3-0.4-0.2-0.9,0.2-1.2l6.2-4.7c0.2-0.1,0.4-0.2,0.6-0.2
			c0.2,0,0.4,0.2,0.6,0.3L65,109c0.1,0.2,0.2,0.4,0.2,0.6c0,0.2-0.2,0.4-0.3,0.6l-6.2,4.7C58.5,115,58.3,115,58.1,115z M47.3,98.4
			l11,14.6l4.9-3.7l-11-14.6L47.3,98.4z"/>
		<polygon class="st4" points="82.6,98.2 70.6,114.2 64.4,109.5 76.4,93.5 		"/>
		<path class="st1" d="M70.6,115c-0.2,0-0.4-0.1-0.5-0.2l-6.2-4.7c-0.2-0.1-0.3-0.3-0.3-0.6c0-0.2,0-0.5,0.2-0.6l12-15.9
			c0.1-0.2,0.3-0.3,0.6-0.3c0.2,0,0.5,0,0.6,0.2l6.2,4.7c0.4,0.3,0.5,0.8,0.2,1.2l-12,15.9C71.1,114.9,70.9,115,70.6,115z
			 M65.6,109.3l4.9,3.7l11-14.6l-4.9-3.7L65.6,109.3z"/>
		<path class="st1" d="M89,132.4c-0.5,0-0.9-0.4-0.9-0.9V119c0-0.5,0.4-0.9,0.9-0.9s0.9,0.4,0.9,0.9v12.5
			C89.8,132,89.4,132.4,89,132.4z"/>
		<path class="st1" d="M39.8,132.4c-0.5,0-0.9-0.4-0.9-0.9V119c0-0.5,0.4-0.9,0.9-0.9c0.5,0,0.9,0.4,0.9,0.9v12.5
			C40.6,132,40.3,132.4,39.8,132.4z"/>
		<path class="st2" d="M128.1,33c0,0,1.9,7.2,7.5,7.5c0,0-7.4,2.6-7.6,8.1c0,0-1.5-7.7-7.3-8C120.7,40.6,127.5,39.6,128.1,33z"/>
		<path class="st2" d="M115.7,42.6c0,0,1.4,5.1,5.3,5.3c0,0-5.3,1.8-5.4,5.7c0,0-1-5.4-5.2-5.6C110.5,48,115.4,47.3,115.7,42.6z"/>
		<path class="st2" d="M115.7,27.5c0,0,1.4,5.1,5.3,5.3c0,0-5.3,1.8-5.4,5.7c0,0-1-5.4-5.2-5.6C110.5,32.9,115.4,32.2,115.7,27.5z"
			/>
	</g>
</g>
</svg>
