<?xml version="1.0" encoding="utf-8"?>
<!-- Generator: Adobe Illustrator 24.1.0, SVG Export Plug-In . SVG Version: 6.00 Build 0)  -->
<svg version="1.1" id="Layer_1" xmlns="http://www.w3.org/2000/svg" xmlns:xlink="http://www.w3.org/1999/xlink" x="0px" y="0px"
	 viewBox="0 0 136 136" style="enable-background:new 0 0 136 136;" xml:space="preserve">
<style type="text/css">
	.st0{fill:#FFFFFF;stroke:#006FF4;stroke-miterlimit:10;}
	.st1{fill:#0037FF;stroke:#006FF4;stroke-miterlimit:10;}
	.st2{fill:#0037FF;stroke:#006FF4;stroke-width:0;stroke-miterlimit:10;}
	.st3{display:none;}
	.st4{display:inline;fill:#0043FF;stroke:#006FF4;stroke-width:0;stroke-miterlimit:10;}
	.st5{fill:#3A98DD;}
	.st6{fill:#FFFFFF;}
	.st7{fill:#E8F0FC;}
	.st8{fill:#F9EEE8;}
	.st9{fill:#F4DDD4;}
	.st10{fill:#BABABA;}
	.st11{fill:#FFC38D;}
	.st12{fill:#2A347C;}
	.st13{fill:#1DACFC;}
</style>
<g>
	<g>
		<g>
			<g>
				<path class="st0" d="M132.3,76.5l-28.4,0c-0.8,0-1.5,0.7-1.5,1.5v21c0,0.8,0.7,1.5,1.5,1.5h5.2v7.6l7.6-7.6l15.6,0
					c0.8,0,1.5-0.7,1.5-1.5V78C133.8,77.2,133.2,76.5,132.3,76.5z"/>
			</g>
			<g>
				<path class="st1" d="M109.1,109c-0.1,0-0.2,0-0.3-0.1c-0.2-0.1-0.4-0.3-0.4-0.6v-7h-4.6c-1.2,0-2.1-1-2.1-2.1V78.1
					c0-1.2,1-2.1,2.1-2.1l28.6,0c1.2,0,2.1,1,2.1,2.1v21.1c0,1.2-1,2.1-2.1,2.1l-15.4,0l-7.5,7.5C109.4,108.9,109.3,109,109.1,109z
					 M103.8,77.3c-0.4,0-0.8,0.4-0.8,0.8v21.1c0,0.4,0.4,0.8,0.8,0.8h5.3c0.4,0,0.7,0.3,0.7,0.7v6l6.5-6.5c0.1-0.1,0.3-0.2,0.5-0.2
					c0,0,15.7,0,15.7,0c0.4,0,0.8-0.4,0.8-0.8V78.1c0-0.4-0.4-0.8-0.8-0.8C132.5,77.3,103.8,77.3,103.8,77.3z"/>
			</g>
		</g>
		<g>
			<g>
				<path class="st1" d="M48,63v-1.3c1.9,0,3.7-0.9,4.7-2.5c0.1-0.2,0.3-0.3,0.6-0.3h27.1V17h-3.1v-1.3H81c0.4,0,0.7,0.3,0.7,0.7
					v43.2c0,0.4-0.3,0.7-0.7,0.7H53.6C52.3,61.9,50.2,63,48,63z"/>
			</g>
			<g>
				<path class="st1" d="M15.6,58.6h-1.3V16.3c0-0.4,0.3-0.7,0.7-0.7h4.4V17h-3.8V58.6z"/>
			</g>
			<g>
				<path class="st1" d="M48,60.2c-0.4,0-0.7-0.3-0.7-0.7v-2.9h0c0-0.3,0-0.5,0-0.8V16.4c0-2.5-2-4.5-4.5-4.5H19.4V50H27v1.3h-8.2
					c-0.4,0-0.7-0.3-0.7-0.7V11.3c0-0.4,0.3-0.7,0.7-0.7h24.1c2.2,0,4.2,1.3,5.2,3.1c1-1.9,2.9-3.1,5.2-3.1h24.1
					c0.4,0,0.7,0.3,0.7,0.7v39.4c0,0.4-0.3,0.7-0.7,0.7H53.9c-2.7,0-4.9,2-5.2,4.6v3.6C48.7,59.9,48.4,60.2,48,60.2z M48.7,16.4
					v36.1c1.2-1.6,3.1-2.6,5.2-2.6h22.7V11.9H53.2C50.7,11.9,48.7,13.9,48.7,16.4z"/>
			</g>
			<g>
				<rect x="18.8" y="52.5" class="st1" width="8.3" height="1.3"/>
			</g>
			<g>
				<rect x="53.7" y="52.5" class="st1" width="22.9" height="1.3"/>
			</g>
			<g>
				<path class="st1" d="M27,56.4h-8.3c-0.4,0-0.7-0.3-0.7-0.7v-5.1h1.3v4.4H27V56.4z"/>
			</g>
			<g>
				<polygon class="st1" points="30.6,22.3 27.5,20.3 24.5,22.3 24.5,11.8 30.6,11.8 				"/>
			</g>
			<g>
				<path class="st1" d="M62,63.5c-0.1,0-0.2,0-0.3-0.1c-0.2-0.1-0.3-0.3-0.3-0.6v-9.7c0-0.4,0.3-0.7,0.7-0.7h6.4
					c0.4,0,0.7,0.3,0.7,0.7v9.7c0,0.2-0.1,0.5-0.3,0.6c-0.2,0.1-0.5,0.1-0.7,0l-2.8-1.8l-2.8,1.8C62.2,63.5,62.1,63.5,62,63.5z
					 M65.1,60.2c0.1,0,0.2,0,0.4,0.1l2.2,1.3v-7.8h-5v7.8l2.2-1.3C64.9,60.3,65,60.2,65.1,60.2z"/>
			</g>
			<g>
				<path class="st1" d="M24.5,23.4c-0.1,0-0.2,0-0.3-0.1c-0.2-0.1-0.3-0.3-0.3-0.6V11.3c0-0.4,0.3-0.7,0.7-0.7h6.4
					c0.4,0,0.7,0.3,0.7,0.7v11.5c0,0.2-0.1,0.5-0.3,0.6c-0.2,0.1-0.5,0.1-0.7,0l-2.8-1.8l-2.8,1.8C24.7,23.4,24.6,23.4,24.5,23.4z
					 M27.6,20.1c0.1,0,0.2,0,0.4,0.1l2.2,1.3v-9.6h-5v9.6l2.2-1.3C27.4,20.1,27.5,20.1,27.6,20.1z"/>
			</g>
			<g>
				<rect x="33.4" y="18.2" class="st1" width="8.9" height="1.3"/>
			</g>
			<g>
				<rect x="33.4" y="22.7" class="st1" width="8.9" height="1.3"/>
			</g>
			<g>
				<path class="st1" d="M42.3,33.5H25.1c-0.4,0-0.7-0.3-0.7-0.7v-4.4c0-0.4,0.3-0.7,0.7-0.7h17.2c0.4,0,0.7,0.3,0.7,0.7v4.4
					C42.9,33.2,42.6,33.5,42.3,33.5z M25.8,32.2h15.8v-3.1H25.8V32.2z"/>
			</g>
			<g>
				<rect x="24.5" y="41.1" class="st1" width="2.5" height="1.3"/>
			</g>
			<g>
				<path class="st1" d="M72.1,24H54.3c-0.4,0-0.7-0.3-0.7-0.7v-4.4c0-0.4,0.3-0.7,0.7-0.7h17.8c0.4,0,0.7,0.3,0.7,0.7v4.4
					C72.8,23.7,72.5,24,72.1,24z M55,22.7h16.5v-3.1H55V22.7z"/>
			</g>
			<g>
				<rect x="53.7" y="32.2" class="st1" width="14.6" height="1.3"/>
			</g>
			<g>
				<rect x="38.5" y="41.1" class="st1" width="4.4" height="1.3"/>
			</g>
			<g>
				<g>
					<rect x="53.7" y="27.7" class="st1" width="1.9" height="1.3"/>
				</g>
				<g>
					<rect x="56.9" y="27.7" class="st1" width="1.9" height="1.3"/>
				</g>
				<g>
					<rect x="60.1" y="27.7" class="st1" width="1.9" height="1.3"/>
				</g>
				<g>
					<rect x="63.2" y="27.7" class="st1" width="1.9" height="1.3"/>
				</g>
				<g>
					<rect x="66.4" y="27.7" class="st1" width="1.9" height="1.3"/>
				</g>
				<g>
					<rect x="69.6" y="27.7" class="st1" width="1.9" height="1.3"/>
				</g>
			</g>
			<g>
				<g>
					<rect x="24.5" y="36.6" class="st1" width="1.9" height="1.3"/>
				</g>
			</g>
		</g>
		<g>
			<g>
				<g>
					<path class="st1" d="M42.8,113.1H5.8c-0.4,0-0.7-0.3-0.7-0.7V62.8c0-0.4,0.3-0.7,0.7-0.7h20.7v1.3h-20v48.2h35.6v-3.1h1.3v3.7
						C43.4,112.8,43.1,113.1,42.8,113.1z"/>
				</g>
				<g>
					<path class="st1" d="M42.9,85.4h-1.3V63.5h-9.2v-1.3h9.9c0.4,0,0.7,0.3,0.7,0.7V85.4z"/>
				</g>
				<g>
					<path class="st1" d="M18.4,77.3h-6.9c-0.4,0-0.7-0.3-0.7-0.7v-6.9c0-0.4,0.3-0.7,0.7-0.7h5v1.3h-4.4V76h5.6v-1.8h1.3v2.5
						C19.1,77,18.8,77.3,18.4,77.3z"/>
				</g>
				<g>
					<rect x="23.4" y="74.7" class="st1" width="3.8" height="1.3"/>
				</g>
				<g>
					<path class="st1" d="M15.4,75.3c-0.2,0-0.3-0.1-0.5-0.2l-2.6-2.6l0.9-0.9l2.1,2.1l4.5-4.5l0.9,0.9l-4.9,4.9
						C15.7,75.2,15.6,75.3,15.4,75.3z"/>
				</g>
				<g>
					<path class="st1" d="M18.4,90.5h-6.9c-0.4,0-0.7-0.3-0.7-0.7v-6.9c0-0.4,0.3-0.7,0.7-0.7h5v1.3h-4.4v5.6h5.6v-1.8h1.3v2.5
						C19.1,90.2,18.8,90.5,18.4,90.5z"/>
				</g>
				<g>
					<rect x="23.4" y="83.5" class="st1" width="3.5" height="1.3"/>
				</g>
				<g>
					<rect x="23.4" y="87.9" class="st1" width="3.6" height="1.3"/>
				</g>
				<g>
					<path class="st1" d="M15.4,88.3c-0.2,0-0.3-0.1-0.5-0.2l-2.6-2.6l0.9-0.9l2.1,2.1l4.5-4.5l0.9,0.9l-4.9,4.9
						C15.7,88.2,15.6,88.3,15.4,88.3z"/>
				</g>
				<g>
					<path class="st1" d="M47.8,117.9H2.1c-0.4,0-0.7-0.3-0.7-0.7V64.7h1.3v51.9h44.3v-6.4h1.3v7.1
						C48.4,117.6,48.1,117.9,47.8,117.9z"/>
				</g>
				<g>
					<rect x="11.5" y="99.2" class="st1" width="15.4" height="1.3"/>
				</g>
				<g>
					<rect x="11.5" y="103.6" class="st1" width="8.8" height="1.3"/>
				</g>
			</g>
			<g>
				<rect x="23.4" y="70.3" class="st1" width="1.9" height="1.3"/>
			</g>
			<g>
				<rect x="15.3" y="94.8" class="st1" width="1.9" height="1.3"/>
			</g>
			<g>
				<rect x="11.5" y="94.8" class="st1" width="1.9" height="1.3"/>
			</g>
			<g>
				<rect x="22.8" y="94.8" class="st1" width="1.9" height="1.3"/>
			</g>
			<g>
				<rect x="19" y="94.8" class="st1" width="1.9" height="1.3"/>
			</g>
		</g>
		<g>
			<g>
				<g>
					<path class="st0" d="M108.2,65.8l6.1,18.4c1.2,3.5,5.1,5.2,8.4,3.6c3.3-1.5,4.6-5.6,2.7-8.7l-10.1-16.6L108.2,65.8z"/>
				</g>
				<g>
					
						<rect x="107.9" y="58.8" transform="matrix(0.9078 -0.4194 0.4194 0.9078 -15.6664 52.0162)" class="st2" width="5.2" height="5.7"/>
				</g>
				<g class="st3">
					
						<ellipse transform="matrix(0.4551 -0.8904 0.8904 0.4551 20.5947 108.3899)" class="st4" cx="98.9" cy="37.4" rx="19" ry="19"/>
				</g>
				<g>
					<path class="st0" d="M88.7,15.4c-12.1,5.6-17.4,20-11.8,32.1c5.6,12.1,20,17.4,32.1,11.8c12.1-5.6,17.4-20,11.8-32.1
						C115.2,15.1,100.8,9.8,88.7,15.4z M106.8,54.6C97.3,59,86,54.9,81.6,45.3c-4.4-9.5-0.2-20.8,9.3-25.2
						c9.5-4.4,20.8-0.2,25.2,9.3C120.5,38.9,116.4,50.2,106.8,54.6z"/>
				</g>
			</g>
			<g>
				<g>
					<path class="st1" d="M118.7,60.6l-0.8-1.1l1.3-1l0.1-0.1l0.9,1l-0.2,0.2c0,0,0,0-0.1,0L118.7,60.6z M121.6,57.9l-1-0.9
						c0.4-0.5,0.9-1,1.3-1.5l1.1,0.8C122.5,56.9,122.1,57.4,121.6,57.9z M124.2,54.7l-1.1-0.8c0.4-0.5,0.7-1.1,1-1.7l1.2,0.7
						C124.9,53.5,124.5,54.1,124.2,54.7z M126.2,51.1l-1.2-0.6c0.3-0.6,0.6-1.2,0.8-1.8l1.2,0.5C126.8,49.9,126.5,50.5,126.2,51.1z
						 M127.8,47.4l-1.3-0.4c0.2-0.6,0.4-1.2,0.6-1.9l1.3,0.4C128.3,46.1,128,46.7,127.8,47.4z M128.9,43.4l-1.3-0.3
						c0.1-0.6,0.2-1.3,0.3-1.9l1.3,0.2C129.2,42.1,129,42.8,128.9,43.4z M129.5,39.4l-1.3-0.1c0-0.6,0.1-1.3,0.1-2l1.3,0
						C129.5,38,129.5,38.7,129.5,39.4z M128.1,35.4c0-0.6-0.1-1.3-0.2-1.9l1.3-0.2c0.1,0.7,0.2,1.4,0.2,2L128.1,35.4z M127.6,31.5
						c-0.1-0.6-0.3-1.3-0.5-1.9l1.3-0.4c0.2,0.7,0.3,1.3,0.5,2L127.6,31.5z M126.6,27.7c-0.2-0.6-0.4-1.2-0.7-1.8l1.2-0.5
						c0.3,0.6,0.5,1.3,0.7,1.9L126.6,27.7z M125,24.1c-0.3-0.6-0.6-1.2-0.9-1.7l1.1-0.7c0.3,0.6,0.7,1.2,1,1.8L125,24.1z
						 M123.1,20.8c-0.4-0.5-0.8-1.1-1.2-1.6l1-0.8c0.4,0.5,0.8,1.1,1.2,1.6L123.1,20.8z M120.6,17.7c-0.4-0.5-0.9-1-1.4-1.4l0.9-1
						c0.5,0.5,1,1,1.4,1.5L120.6,17.7z M117.8,15c-0.5-0.4-1-0.8-1.5-1.2l0.8-1.1c0.5,0.4,1.1,0.8,1.6,1.3L117.8,15z M80,14.8
						l-0.9-1c0.5-0.4,1.1-0.9,1.6-1.3l0.8,1.1C81,14,80.5,14.4,80,14.8z M114.7,12.6c-0.5-0.4-1.1-0.7-1.7-1l0.6-1.2
						c0.6,0.3,1.2,0.7,1.8,1L114.7,12.6z M83.2,12.5l-0.7-1.1c0.6-0.4,1.2-0.7,1.8-1l0.6,1.2C84.3,11.8,83.7,12.2,83.2,12.5z
						 M111.3,10.8c-0.6-0.3-1.2-0.5-1.8-0.8l0.5-1.2c0.6,0.2,1.3,0.5,1.9,0.8L111.3,10.8z M86.6,10.7L86,9.4
						c0.6-0.3,1.3-0.5,1.9-0.8l0.5,1.2C87.8,10.1,87.2,10.4,86.6,10.7z M107.6,9.3c-0.6-0.2-1.3-0.4-1.9-0.5l0.3-1.3
						c0.7,0.2,1.3,0.3,2,0.5L107.6,9.3z M90.3,9.3L89.9,8c0.6-0.2,1.3-0.4,2-0.5l0.3,1.3C91.5,8.9,90.9,9.1,90.3,9.3z M103.8,8.4
						c-0.6-0.1-1.3-0.2-1.9-0.3l0.1-1.3c0.7,0.1,1.4,0.2,2,0.3L103.8,8.4z M94.1,8.4l-0.2-1.3c0.7-0.1,1.4-0.2,2-0.3L96,8.1
						C95.4,8.2,94.7,8.3,94.1,8.4z M99.9,8c-0.6,0-1.3,0-2,0l0-1.3c0.7,0,1.4,0,2,0L99.9,8z"/>
				</g>
				<g>
					<path class="st1" d="M98.9,68.1c-0.4,0-0.8,0-1.2,0l0.1-1.3c0.6,0,1.3,0,2,0l0,1.3C99.4,68.1,99.1,68.1,98.9,68.1z M101.7,67.9
						l-0.1-1.3c0.6-0.1,1.3-0.1,1.9-0.2l0.2,1.3C103.1,67.8,102.4,67.9,101.7,67.9z M95.6,67.9c-0.7-0.1-1.4-0.2-2-0.3l0.2-1.3
						c0.6,0.1,1.3,0.2,1.9,0.3L95.6,67.9z M91.6,67.2c-0.7-0.2-1.3-0.3-2-0.6l0.4-1.3c0.6,0.2,1.3,0.4,1.9,0.5L91.6,67.2z"/>
				</g>
				<g>
					<path class="st1" d="M99,62.2c-9.4,0-18.4-5.4-22.6-14.4c-2.8-6-3.1-12.8-0.8-19c2.3-6.2,6.9-11.2,12.9-14
						c12.5-5.8,27.3-0.3,33,12.2c5.8,12.5,0.3,27.3-12.2,33C106,61.5,102.5,62.2,99,62.2z M98.9,13.8c-3.3,0-6.7,0.7-9.8,2.2
						c-5.7,2.6-10.1,7.3-12.2,13.2c-2.2,5.9-1.9,12.3,0.7,18C83,59,97.1,64.1,108.9,58.7c11.8-5.4,16.9-19.5,11.5-31.3
						C116.4,18.8,107.8,13.8,98.9,13.8z"/>
				</g>
				<g>
					<path class="st1" d="M99,56.8c-7.4,0-14.4-4.2-17.7-11.3c-2.2-4.7-2.4-10-0.6-14.9c1.8-4.9,5.4-8.8,10.1-11
						c9.8-4.5,21.4-0.2,25.9,9.5c4.5,9.8,0.2,21.4-9.5,25.9C104.5,56.2,101.7,56.8,99,56.8z M98.9,19.1c-2.5,0-5.1,0.5-7.6,1.7
						c-4.4,2-7.8,5.7-9.4,10.2c-1.7,4.6-1.5,9.5,0.6,13.9c4.2,9.1,15,13.1,24.1,8.9c9.1-4.2,13.1-15,8.9-24.1
						C112.4,23.1,105.8,19.1,98.9,19.1z"/>
				</g>
				<g>
					<path class="st1" d="M120,89.1c-0.9,0-1.8-0.2-2.7-0.6c-1.8-0.8-3.1-2.3-3.7-4.1L107.5,66c-0.1-0.3,0-0.7,0.4-0.8l7.1-3.3
						c0.3-0.1,0.7,0,0.9,0.3l10.1,16.6c1,1.6,1.2,3.7,0.7,5.5c-0.6,1.8-1.9,3.4-3.6,4.2C122,88.9,121,89.1,120,89.1z M108.9,66.2
						l5.9,17.8c0.5,1.5,1.6,2.7,3,3.3c1.4,0.6,3,0.6,4.5-0.1c1.4-0.6,2.5-1.9,2.9-3.4c0.5-1.5,0.3-3.1-0.6-4.4L115,63.4L108.9,66.2z
						"/>
				</g>
				<g>
					
						<rect x="108.9" y="67.8" transform="matrix(0.9078 -0.4195 0.4195 0.9078 -18.2204 53.9784)" class="st1" width="9.5" height="1.3"/>
				</g>
				<g>
					
						<rect x="107.4" y="60" transform="matrix(0.9078 -0.4195 0.4195 0.9078 -16.353 51.1349)" class="st1" width="1.3" height="5.5"/>
				</g>
				<g>
					
						<rect x="112.1" y="57.8" transform="matrix(0.9078 -0.4195 0.4195 0.9078 -15.012 52.9015)" class="st1" width="1.3" height="5.5"/>
				</g>
			</g>
		</g>
		<g>
			<g>
				<path class="st1" d="M96.3,41.7c0-1.6,0.2-2.8,0.5-3.7c0.4-0.9,0.9-1.7,1.7-2.3s1.4-1.3,1.8-1.8c0.4-0.5,0.6-1.2,0.6-1.8
					c0-1.6-0.7-2.4-2.1-2.4c-0.6,0-1.2,0.2-1.5,0.7c-0.4,0.5-0.6,1.1-0.6,1.9h-5.4c0-2.1,0.7-3.8,2-5c1.3-1.2,3.2-1.8,5.5-1.8
					c2.4,0,4.2,0.5,5.5,1.6c1.3,1.1,2,2.7,2,4.7c0,0.9-0.2,1.7-0.5,2.4s-0.9,1.5-1.7,2.2l-1.8,1.7c-0.5,0.5-0.9,1-1.1,1.5
					c-0.2,0.5-0.3,1.2-0.3,2H96.3z M95.7,46.5c0-0.8,0.3-1.4,0.9-1.9c0.6-0.5,1.3-0.8,2.1-0.8c0.8,0,1.6,0.3,2.1,0.8
					c0.6,0.5,0.9,1.2,0.9,1.9s-0.3,1.4-0.9,1.9c-0.6,0.5-1.3,0.8-2.1,0.8c-0.8,0-1.6-0.3-2.1-0.8C96,48,95.7,47.3,95.7,46.5z"/>
			</g>
		</g>
		<g>
			<rect x="109.3" y="90.9" class="st1" width="19.5" height="1.3"/>
		</g>
		<g>
			<rect x="109.3" y="84.5" class="st1" width="5.3" height="1.3"/>
		</g>
	</g>
	<g>
		<g>
			<g>
				<polygon class="st5" points="105.2,111.3 104.1,106.9 79.8,112.9 82.6,124.3 107.9,123.2 				"/>
			</g>
			<g>
				<rect x="32.7" y="28" class="st6" width="53.6" height="73.6"/>
			</g>
			<g>
				<rect x="32.7" y="99" class="st7" width="54.9" height="2.8"/>
			</g>
			<g>
				<rect x="83.2" y="28" class="st7" width="3.2" height="73.1"/>
			</g>
			<g>
				<path class="st8" d="M83.1,108.7c-0.9-4.9-5.3-7.6-6.9-13.9c-0.9-3.5,0.4-9.8-1.1-13.9c-3.9-11-1.2-14.5,1.5-14.5
					c4.9,0,5,9.1,6.2,13.8c0.4,1.6,1.3,3.6,2.8,4.3c0.7,0.3,1.4,0.7,1.8,0.7c0-7.5,0-16.8,0-24.3c3.3,3.2,11.7,10.8,13.2,14.9
					c0.1,0.4,0.2,0.7,0.2,0.7c0.6,2.1,0.8,4.2,0.1,8.5c-0.5,3.4-1.7,11.4-1.7,14.2c-0.1,3.1,0.3,5.3,0.3,5.3L83.1,108.7z"/>
			</g>
			<g>
				<path class="st9" d="M87.3,86.1h0.8c1.8,0,3.3-1.5,3.3-3.3v-18l-4-3.9V86.1z"/>
			</g>
			<g>
				<g>
					<path class="st9" d="M79,95c-1.3-3.6-0.6-10.3-2.5-14.5c-3-6.5-3.2-10.4-2.5-12.6c-1.2,1.9-1.6,5.7,0.9,12.8
						c1.5,4.1,0.2,10.4,1.1,13.9c1.6,6.3,6.2,9.2,7.1,14.1l4-1.1C85.2,103.5,81,100.8,79,95z"/>
				</g>
			</g>
			<g>
				<polygon class="st6" points="101.5,107.5 100.8,104.1 81.2,109 81.9,112.4 				"/>
			</g>
			<g>
				<polygon class="st10" points="82.5,124.3 85.6,124.2 82.6,112.2 79.8,112.9 				"/>
			</g>
			<g>
				
					<rect x="84.9" y="115" transform="matrix(0.2464 0.9692 -0.9692 0.2464 177.5312 4.1451)" class="st11" width="2.4" height="2.4"/>
			</g>
			<g>
				
					<rect x="86.1" y="114.7" transform="matrix(0.9692 -0.2464 0.2464 0.9692 -25.874 25.0736)" class="st12" width="2.4" height="2.4"/>
			</g>
			<g>
				<path d="M79.1,102.8H32.6c-0.5,0-0.8-0.4-0.8-0.8V28.5c0-0.5,0.4-0.8,0.8-0.8h54c0.5,0,0.8,0.4,0.8,0.8V62h-1.7V29.3H33.5v71.8
					h45.7V102.8z"/>
			</g>
			<g>
				<path d="M81.5,108.8c-0.4-2.2-1.6-3.9-3-5.9c-1.4-2.1-3.1-4.5-3.9-7.9c-0.4-1.7-0.4-3.8-0.4-6c0-2.8,0.1-5.6-0.7-7.8
					c-3-8.3-2.1-12.2-0.9-14c0.8-1.1,1.9-1.7,3.1-1.7c4.5,0,5.5,6,6.3,10.9c0.2,1.3,0.4,2.6,0.7,3.6c0.3,1.4,1.2,3.2,2.3,3.8
					c0.2,0.1,0.4,0.2,0.7,0.3V60.9c0-0.3,0.2-0.6,0.5-0.8c0.3-0.1,0.7-0.1,0.9,0.2c0.5,0.5,1.2,1.1,1.9,1.8
					c4,3.9,10.2,9.8,11.5,13.4c0.1,0.4,0.3,0.7,0.3,0.8c0.6,2,0.8,4.2,0.1,8.9c-0.5,3.2-1.7,11.2-1.7,14.1c-0.1,3,0.3,5.1,0.3,5.1
					l-1.6,0.3c0-0.1-0.4-2.2-0.3-5.4c0.1-2.9,1.2-11,1.7-14.3c0.7-4.3,0.5-6.3-0.1-8.1c0,0-0.1-0.3-0.2-0.6
					c-1.3-3.3-7.4-9.2-11.1-12.8c-0.2-0.2-0.3-0.3-0.5-0.5v22.3c0,0.2-0.1,0.5-0.3,0.6c-0.2,0.2-0.4,0.2-0.7,0.2
					c-0.5-0.1-1.2-0.4-2.1-0.8c-2.1-1-3-4-3.2-4.9c-0.3-1.1-0.5-2.4-0.7-3.7c-0.7-4.4-1.6-9.5-4.6-9.5c-0.5,0-1.2,0.2-1.7,1
					c-0.7,0.9-1.9,4.1,1.1,12.4C76,83,76,86.1,75.9,89c0,2.1,0,4.2,0.3,5.6c0.8,3.1,2.3,5.3,3.7,7.3c1.4,2.1,2.7,4,3.2,6.6
					L81.5,108.8z"/>
			</g>
			<g>
				<path d="M81.6,113.2c-0.2,0-0.3,0-0.4-0.1c-0.2-0.1-0.3-0.3-0.4-0.5l-0.8-3.4c-0.1-0.4,0.2-0.9,0.6-1l19.6-4.9
					c0.2-0.1,0.4,0,0.6,0.1c0.2,0.1,0.3,0.3,0.4,0.5l0.8,3.4c0.1,0.4-0.2,0.9-0.6,1l-19.6,4.9C81.8,113.2,81.7,113.2,81.6,113.2z
					 M81.9,109.7l0.4,1.7l18-4.5l-0.4-1.7L81.9,109.7z"/>
			</g>
			<g>
				<path d="M81.4,124.6l-2.7-11.5c-0.1-0.4,0.2-0.9,0.6-1l24.3-6.1c0.4-0.1,0.9,0.2,1,0.6l4.4,17.3l-1.6,0.4l-4.2-16.5l-22.7,5.7
					l2.5,10.7L81.4,124.6z"/>
			</g>
			<g>
				<rect x="41" y="59.3" width="38.1" height="1.7"/>
			</g>
			<g>
				<rect x="41" y="65.8" width="29.8" height="1.7"/>
			</g>
			<g>
				<path d="M76.3,107.5H27c-0.5,0-0.8-0.4-0.8-0.8V31.3h1.7v74.5h48.5V107.5z"/>
			</g>
			<g>
				<rect x="41" y="82.6" width="26" height="1.7"/>
			</g>
			<g>
				<rect x="41" y="89.1" width="13" height="1.7"/>
			</g>
			<g>
				<rect x="46.6" y="76.1" width="2.8" height="1.7"/>
			</g>
			<g>
				<rect x="41" y="76.1" width="2.8" height="1.7"/>
			</g>
			<g>
				<rect x="57.7" y="76.1" width="2.8" height="1.7"/>
			</g>
			<g>
				<rect x="52.2" y="76.1" width="2.8" height="1.7"/>
			</g>
			<g>
				<rect x="63.3" y="76.1" width="2.8" height="1.7"/>
			</g>
			<g>
				<g>
					<g>
						<path class="st13" d="M42.2,50.7V38.4h8.9v2.2h-6.6V44h6.2v2.2h-6.2v4.6H42.2z"/>
					</g>
					<g>
						<path class="st13" d="M61.5,48.4H55L54,50.7h-2.5L57,38.3h2.5l5.6,12.4h-2.5L61.5,48.4z M58.3,40.9L56,46.2h4.6L58.3,40.9z"/>
					</g>
					<g>
						<path class="st13" d="M77.8,44.4c0,1.4-0.4,2.9-1.2,4l1.5,1.5l-1.6,1.6L74.9,50c-0.9,0.6-2.1,0.9-3.5,0.9
							c-4.4,0-6.4-3.2-6.4-6.4c0-3.2,2-6.5,6.4-6.5S77.7,41.2,77.8,44.4z M67.3,44.6c0,2,1.4,4.2,4.1,4.2c2.8,0,4.1-2.4,4.1-4.5
							c-0.1-2-1.1-4.2-4.1-4.2C68.5,40.1,67.3,42.5,67.3,44.6z"/>
					</g>
				</g>
			</g>
		</g>
		<g>
			<path class="st7" d="M101.3,124.9H28.1c0,2.5,2.3,4.4,5,4.4h63C99,129.4,101.3,127.4,101.3,124.9L101.3,124.9z"/>
		</g>
		<g>
			<rect x="16.7" y="123.3" width="96" height="1.7"/>
		</g>
	</g>
</g>
</svg>
