<?xml version="1.0" encoding="utf-8"?>
<!-- Generator: Adobe Illustrator 24.1.0, SVG Export Plug-In . SVG Version: 6.00 Build 0)  -->
<svg version="1.1" id="Layer_1" xmlns="http://www.w3.org/2000/svg" xmlns:xlink="http://www.w3.org/1999/xlink" x="0px" y="0px"
	 viewBox="0 0 137 137" style="enable-background:new 0 0 137 137;" xml:space="preserve">
<style type="text/css">
	.st0{fill:#FFD41D;}
	.st1{fill:#263238;}
	.st2{fill:#4FC3F7;}
	.st3{fill:#40C4FF;}
</style>
<g>
	<polygon class="st0" points="129.4,98.9 125.8,98.9 123.8,107.3 130,107.3 	"/>
	<rect x="3.4" y="60.2" class="st0" width="104.6" height="6.8"/>
	<g>
		<path class="st1" d="M8.9,131.3H2.6c-0.6,0-1-0.5-1-1c0-0.6,0.5-1,1-1h6.3c0.6,0,1,0.5,1,1C9.9,130.8,9.5,131.3,8.9,131.3z"/>
	</g>
	<g>
		<path class="st1" d="M134.4,131.3H13.1c-0.6,0-1-0.5-1-1c0-0.6,0.5-1,1-1h121.3c0.6,0,1,0.5,1,1
			C135.4,130.8,134.9,131.3,134.4,131.3z"/>
	</g>
	<g>
		<path class="st1" d="M47.6,43.5h-4.2c-0.6,0-1-0.5-1-1s0.5-1,1-1h4.2c0.6,0,1,0.5,1,1S48.1,43.5,47.6,43.5z"/>
	</g>
	<g>
		<path class="st1" d="M74.8,43.5h-23c-0.6,0-1-0.5-1-1s0.5-1,1-1h23c0.6,0,1,0.5,1,1S75.3,43.5,74.8,43.5z"/>
	</g>
	<g>
		<path class="st1" d="M85.2,37.2H60.1c-0.6,0-1-0.5-1-1s0.5-1,1-1h25.1c0.6,0,1,0.5,1,1S85.8,37.2,85.2,37.2z"/>
	</g>
	<g>
		<path class="st2" d="M10.7,22.3c0-4.1,4.1-7.4,9.1-7.4s9.1,3.3,9.1,7.4c5.1,0,9.1,3.3,9.1,7.4s-4.1,7.4-9.1,7.4H10.7
			c-5.1,0-9.1-3.3-9.1-7.4S5.7,22.3,10.7,22.3z"/>
	</g>
	<g>
		<path class="st1" d="M105.8,131.3c-8.1,0-14.6-6.6-14.6-14.6s6.6-14.6,14.6-14.6s14.6,6.6,14.6,14.6S113.9,131.3,105.8,131.3z
			 M105.8,104.1c-6.9,0-12.5,5.6-12.5,12.5s5.6,12.5,12.5,12.5s12.5-5.6,12.5-12.5S112.8,104.1,105.8,104.1z"/>
	</g>
	<g>
		<path class="st1" d="M105.8,125c-4.6,0-8.4-3.8-8.4-8.4c0-4.6,3.8-8.4,8.4-8.4s8.4,3.8,8.4,8.4C114.2,121.3,110.4,125,105.8,125z
			 M105.8,110.4c-3.5,0-6.3,2.8-6.3,6.3s2.8,6.3,6.3,6.3s6.3-2.8,6.3-6.3S109.3,110.4,105.8,110.4z"/>
	</g>
	<g>
		<path class="st1" d="M128.4,122.9h-5.6c-0.6,0-1-0.5-1-1c0-0.6,0.5-1,1-1h5.6c0.5,0,0.8-0.3,1-0.7l3.1-9.4c0.2-0.5-0.1-1-0.5-1.3
			l-2.6-1.3c-0.4-0.2-0.6-0.6-0.6-1l0.2-9.4c0-2-1.3-3.7-3.2-4.1l-12.7-3.2c-0.2-0.1-0.4-0.2-0.6-0.4L96.2,68.6H77.6l0,53.3
			c0,0.6-0.5,1-1,1l0,0c-0.6,0-1-0.5-1-1l0-54.4c0-0.6,0.5-1,1-1h20.1c0.3,0,0.6,0.2,0.8,0.4L114,88.5l12.3,3.1
			c2.9,0.7,4.8,3.3,4.8,6.2l-0.2,8.8l2,1c1.4,0.7,2.1,2.3,1.6,3.8l-3.1,9.4C130.9,122.1,129.7,122.9,128.4,122.9z"/>
	</g>
	<g>
		<path class="st3" d="M82.8,75.9v11.5c0,1.2,0.9,2.1,2.1,2.1h28.5l-12-15.7H84.9C83.8,73.8,82.8,74.7,82.8,75.9z"/>
		<path class="st1" d="M113.4,90.5H84.9c-1.7,0-3.1-1.4-3.1-3.1V75.9c0-1.7,1.4-3.1,3.1-3.1h16.5c0.3,0,0.6,0.2,0.8,0.4l12,15.7
			c0.2,0.3,0.3,0.7,0.1,1.1C114.2,90.3,113.8,90.5,113.4,90.5z M84.9,74.8c-0.6,0-1,0.5-1,1v11.5c0,0.6,0.5,1,1,1h26.4l-10.4-13.6
			H84.9z"/>
	</g>
	<g>
		<path class="st1" d="M100.7,84.2c-0.3,0-0.6-0.1-0.8-0.4l-2.4-3.1c-0.4-0.5-0.3-1.1,0.2-1.5c0.5-0.4,1.1-0.3,1.5,0.2l2.4,3.1
			c0.4,0.5,0.3,1.1-0.2,1.5C101.2,84.2,101,84.2,100.7,84.2z"/>
	</g>
	<g>
		<path class="st1" d="M113.4,100.2c-0.6,0-1-0.5-1-1v-5.5c0-0.6,0.5-1,1-1s1,0.5,1,1v5.5C114.5,99.7,114,100.2,113.4,100.2z"/>
	</g>
	<g>
		<path class="st1" d="M129.9,108.3h-6.3c-0.3,0-0.6-0.2-0.8-0.4c-0.2-0.3-0.3-0.6-0.2-0.9l2.3-8.4c0.1-0.5,0.5-0.8,1-0.8h4.2
			c0.3,0,0.6,0.1,0.7,0.3c0.2,0.2,0.3,0.5,0.3,0.8l-0.2,8.4C130.9,107.8,130.4,108.3,129.9,108.3z M125,106.2h3.9l0.1-6.3h-2.3
			L125,106.2z"/>
	</g>
	<g>
		<path class="st1" d="M76.6,122.9c-0.6,0-1-0.5-1-1V67.5c0-0.6,0.5-1,1-1h29.3c0.6,0,1-0.5,1-1v-7.3c0-2.3-1.9-4.2-4.2-4.2H8.6
			c-2.3,0-4.2,1.9-4.2,4.2v58.6c0,2.3,1.9,4.2,4.2,4.2h3.6c0.6,0,1,0.5,1,1c0,0.6-0.5,1-1,1H8.6c-3.5,0-6.3-2.8-6.3-6.3V58.1
			c0-3.5,2.8-6.3,6.3-6.3h94.1c3.5,0,6.3,2.8,6.3,6.3v7.3c0,1.7-1.4,3.1-3.1,3.1H77.6v53.3C77.6,122.5,77.1,122.9,76.6,122.9z"/>
	</g>
	<g>
		<path class="st1" d="M29.5,131.3c-8.1,0-14.6-6.6-14.6-14.6S21.4,102,29.5,102s14.6,6.6,14.6,14.6S37.6,131.3,29.5,131.3z
			 M29.5,104.1c-6.9,0-12.5,5.6-12.5,12.5s5.6,12.5,12.5,12.5S42,123.6,42,116.7S36.4,104.1,29.5,104.1z"/>
	</g>
	<g>
		<path class="st1" d="M88.8,122.9H46.5c-0.6,0-1-0.5-1-1c0-0.6,0.5-1,1-1h42.3c0.6,0,1,0.5,1,1C89.9,122.5,89.4,122.9,88.8,122.9z"
			/>
	</g>
	<g>
		<path class="st1" d="M29.5,125c-4.6,0-8.4-3.8-8.4-8.4c0-4.6,3.8-8.4,8.4-8.4s8.4,3.8,8.4,8.4C37.9,121.3,34.1,125,29.5,125z
			 M29.5,110.4c-3.5,0-6.3,2.8-6.3,6.3s2.8,6.3,6.3,6.3s6.3-2.8,6.3-6.3S33,110.4,29.5,110.4z"/>
	</g>
	<g>
		<path class="st3" d="M65.1,89.5H3.4V73.8h61.7c0.6,0,1,0.4,1,1v13.7C66.1,89,65.6,89.5,65.1,89.5z"/>
		<path class="st1" d="M64,90.5H3.4c-0.6,0-1-0.5-1-1V73.8c0-0.6,0.5-1,1-1H64c1.7,0,3.1,1.4,3.1,3.1v11.5
			C67.1,89.1,65.7,90.5,64,90.5z M4.4,88.4H64c0.6,0,1-0.5,1-1V75.9c0-0.6-0.5-1-1-1H4.4V88.4z"/>
	</g>
	<g>
		<line class="st3" x1="3.4" y1="67.5" x2="76.6" y2="67.5"/>
		<path class="st1" d="M76.6,68.6H3.4c-0.6,0-1-0.5-1-1s0.5-1,1-1h73.2c0.6,0,1,0.5,1,1S77.1,68.6,76.6,68.6z"/>
	</g>
	<g>
		<line class="st3" x1="3.4" y1="95.7" x2="76.6" y2="95.7"/>
		<path class="st1" d="M76.6,96.8H3.4c-0.6,0-1-0.5-1-1s0.5-1,1-1h73.2c0.6,0,1,0.5,1,1S77.1,96.8,76.6,96.8z"/>
	</g>
	<g>
		<line class="st3" x1="3.4" y1="60.2" x2="107.9" y2="60.2"/>
		<path class="st1" d="M107.9,61.2H3.4c-0.6,0-1-0.5-1-1s0.5-1,1-1h104.6c0.6,0,1,0.5,1,1S108.5,61.2,107.9,61.2z"/>
	</g>
	<g>
		<path class="st1" d="M68.2,116.7H64c-1.7,0-3.1-1.4-3.1-3.1v-4.2c0-1.7,1.4-3.1,3.1-3.1h4.2c1.7,0,3.1,1.4,3.1,3.1v4.2
			C71.3,115.2,69.9,116.7,68.2,116.7z M64,108.3c-0.6,0-1,0.5-1,1v4.2c0,0.6,0.5,1,1,1h4.2c0.6,0,1-0.5,1-1v-4.2c0-0.6-0.5-1-1-1H64
			z"/>
	</g>
	<g>
		<path class="st2" d="M49.3,11.8c0-3.4,3.6-6.1,8.1-6.1s8.1,2.8,8.1,6.1c4.5,0,8.1,2.8,8.1,6.1s-3.6,6.1-8.1,6.1H49.3
			c-4.5,0-8.1-2.8-8.1-6.1S44.8,11.8,49.3,11.8z"/>
	</g>
	<g>
		<path class="st2" d="M102.4,32c0-3.4,3.6-6.1,8.1-6.1s8.1,2.8,8.1,6.1c4.5,0,8.1,2.8,8.1,6.1s-3.6,6.1-8.1,6.1h-16.3
			c-4.5,0-8.1-2.8-8.1-6.1S97.9,32,102.4,32z"/>
	</g>
	<circle class="st0" cx="29.5" cy="116.7" r="7"/>
	<circle class="st0" cx="105.8" cy="116.7" r="7"/>
</g>
</svg>
