<?xml version="1.0" encoding="utf-8"?>
<!-- Generator: Adobe Illustrator 24.1.0, SVG Export Plug-In . SVG Version: 6.00 Build 0)  -->
<svg version="1.1" id="Layer_1" xmlns="http://www.w3.org/2000/svg" xmlns:xlink="http://www.w3.org/1999/xlink" x="0px" y="0px"
	 viewBox="0 0 85.4 85.4" style="enable-background:new 0 0 85.4 85.4;" xml:space="preserve">
<style type="text/css">
	.st0{fill-rule:evenodd;clip-rule:evenodd;fill:#2191F7;}
</style>
<path class="st0" d="M2.6,51.3v-1.9l-1.9-1.9v-5.7l1.9-1.9V38h3.8l-1.9-1.9l5.7-5.7v-1.9l5.7-1.9h28.6l5.7,1.9l9.5,5.7h-3.8
	l-5.7-3.8l-5.7-1.9H37v5.7h-1.9v-5.7H23.6v5.7h-1.9v-5.7h-1.9L16,32.2l3.8,3.8h59.1l1.9,1.9H77l1.9,1.9h3.8v3.8l1.9,1.9v3.8
	l-3.8,3.8h-2.3c0.1-0.4,0.1-0.9,0.1-1.4c0-4.9-4-8.9-8.9-8.9c-4.9,0-8.9,4-8.9,8.9c0,0.5,0,0.9,0.1,1.4H25c0.1-0.4,0.1-0.9,0.1-1.4
	c0-4.9-4-8.9-8.9-8.9c-4.9,0-8.9,4-8.9,8.9c0,0.5,0,0.9,0.1,1.4H4.5L2.6,51.3L2.6,51.3z M69.7,44.9c3.9,0,7,3.1,7,7
	c0,2-0.8,3.8-2.2,5.1h6.3v1.9H69.8l0,0l0,0H16.2l0,0l0,0H2.6V57h8.7c-1.4-1.3-2.2-3.1-2.2-5.1c0-3.9,3.1-7,7-7c3.9,0,7,3.1,7,7
	c0,2-0.8,3.8-2.2,5.1h44c-1.4-1.3-2.2-3.1-2.2-5.1C62.7,48,65.9,44.9,69.7,44.9L69.7,44.9z M72.9,51.9c0,1.8-1.4,3.2-3.2,3.2
	c-1.8,0-3.2-1.4-3.2-3.2h1.9c0,0.7,0.6,1.3,1.3,1.3c0.7,0,1.3-0.6,1.3-1.3H72.9L72.9,51.9z M69.7,46.8c2.8,0,5.1,2.3,5.1,5.1
	c0,2.8-2.3,5.1-5.1,5.1h0c-2.8,0-5.1-2.3-5.1-5.1C64.7,49.1,66.9,46.8,69.7,46.8L69.7,46.8z M19.4,51.9c0,1.8-1.4,3.2-3.2,3.2
	c-1.8,0-3.2-1.4-3.2-3.2h1.9c0,0.7,0.6,1.3,1.3,1.3c0.7,0,1.3-0.6,1.3-1.3H19.4L19.4,51.9z M16.2,46.8c2.8,0,5.1,2.3,5.1,5.1
	c0,2.8-2.3,5.1-5.1,5.1h0c-2.8,0-5.1-2.3-5.1-5.1C11.1,49.1,13.4,46.8,16.2,46.8L16.2,46.8z M4.5,50.5l0.8,0.8h0
	c0.3-5.7,5-10.3,10.8-10.3c5.8,0,10.5,4.6,10.8,10.3h32c0.3-5.7,5-10.3,10.8-10.3c5.6,0,10.3,4.3,10.8,9.8l2.2-2.2v-2.2l-1.9-1.9
	v-2.7h-2.7L74.3,38H19l-5.7-5.7l3.8-3.8h-0.8l-4.1,1.4v1.3l-4.9,4.9l3.8,3.8H4.5v0.8l-1.9,1.9v4.1l1.9,1.9V50.5L4.5,50.5z"/>
</svg>
