<svg id="Child_seat" data-name="Child seat" xmlns="http://www.w3.org/2000/svg" width="14.856" height="25.999" viewBox="0 0 14.856 25.999">
  <path id="Path_2555" data-name="Path 2555" d="M9.609,384a.464.464,0,0,0-.464.464v1.415a1.416,1.416,0,0,1,.2-.023h1.189v-1.393a.464.464,0,0,0-.464-.464Zm0,0" transform="translate(-8.68 -364.501)" fill="#9c9c9c"/>
  <path id="Path_2556" data-name="Path 2556" d="M28.822,7.857V3.875A2.323,2.323,0,0,0,27.43,6V7.392a.93.93,0,0,0,.929.929A.465.465,0,0,0,28.822,7.857Zm0,0" transform="translate(-26.037 -3.678)" fill="#9c9c9c"/>
  <path id="Path_2557" data-name="Path 2557" d="M46.363,155.739a2.164,2.164,0,0,1-.867.36,2.406,2.406,0,0,1,.475,1.443v2.671h9.285v-2.671a2.406,2.406,0,0,1,.475-1.443,2.165,2.165,0,0,1-.867-.36,2.876,2.876,0,0,1-1-2.49,13.241,13.241,0,0,1,.323-2.989,11.439,11.439,0,0,0,.187-3.975H46.855a11.434,11.434,0,0,0,.187,3.975,13.231,13.231,0,0,1,.323,2.989A2.876,2.876,0,0,1,46.363,155.739Zm0,0" transform="translate(-43.186 -138.857)" fill="#9c9c9c"/>
  <path id="Path_2558" data-name="Path 2558" d="M257.393,385.88v-1.415a.465.465,0,0,0-.464-.464h-.464a.465.465,0,0,0-.464.464v1.393h1.189A1.42,1.42,0,0,1,257.393,385.88Zm0,0" transform="translate(-243.001 -364.501)" fill="#9c9c9c"/>
  <path id="Path_2559" data-name="Path 2559" d="M237.715,3.875V7.857a.465.465,0,0,0,.464.464.93.93,0,0,0,.929-.929V6A2.323,2.323,0,0,0,237.715,3.875Zm0,0" transform="translate(-225.644 -3.678)" fill="#9c9c9c"/>
  <path id="Path_2560" data-name="Path 2560" d="M69.659,0V4.178a1.377,1.377,0,0,1-.186.683,1.39,1.39,0,0,1,.651,1.174V6.5h6.5V6.035a1.39,1.39,0,0,1,.651-1.174,1.375,1.375,0,0,1-.186-.683V0Zm0,0" transform="translate(-65.945)" fill="#9c9c9c"/>
  <path id="Path_2561" data-name="Path 2561" d="M6.557,442.57h9.361a2.328,2.328,0,0,0,2.276-1.866l.258-1.293a.464.464,0,0,0-.455-.555h-.06c-.516.5-2.308,1.857-6.7,1.857s-6.184-1.353-6.7-1.857h-.06a.464.464,0,0,0-.455.555L4.28,440.7A2.328,2.328,0,0,0,6.557,442.57Zm0,0" transform="translate(-3.809 -416.571)" fill="#9c9c9c"/>
  <path id="Path_2562" data-name="Path 2562" d="M51.99,439.784a11.436,11.436,0,0,0,5.043-.929H46.945A11.442,11.442,0,0,0,51.99,439.784Zm0,0" transform="translate(-44.561 -416.571)" fill="#9c9c9c"/>
  <path id="Path_2563" data-name="Path 2563" d="M228.871,150.493a12.437,12.437,0,0,0-.3,2.8,2.035,2.035,0,0,0,.616,1.736,2,2,0,0,0,1.559.145.458.458,0,0,1,.126-.016,2.313,2.313,0,0,0,.949-1.865v-4.178a2.787,2.787,0,0,0-2.736-2.783A12.137,12.137,0,0,1,228.871,150.493Zm0,0" transform="translate(-216.96 -138.905)" fill="#9c9c9c"/>
  <path id="Path_2564" data-name="Path 2564" d="M0,149.119V153.3a2.313,2.313,0,0,0,.95,1.865.449.449,0,0,1,.124.015,1.986,1.986,0,0,0,1.564-.146A2.039,2.039,0,0,0,3.25,153.3a12.438,12.438,0,0,0-.3-2.8,12.142,12.142,0,0,1-.209-4.157A2.787,2.787,0,0,0,0,149.119Zm0,0" transform="translate(0 -138.905)" fill="#9c9c9c"/>
</svg>
