<svg xmlns="http://www.w3.org/2000/svg" width="114.529" height="85.777" viewBox="0 0 114.529 85.777">
  <g id="Group_32" data-name="Group 32" transform="translate(-903 -612)">
    <g id="mail" transform="translate(903 547.733)">
      <path id="Path_251" data-name="Path 251" d="M54,106.568a11.287,11.287,0,0,0,11.229,0h0L116.2,72.586a12.359,12.359,0,0,0-11.664-8.319H14.687A12.359,12.359,0,0,0,3.023,72.586L54,106.567h0Z" transform="translate(-2.347)" fill="#0091ff"/>
      <path id="Path_252" data-name="Path 252" d="M66.6,167.445h0a17.96,17.96,0,0,1-18.674,0h0L0,135.494V193a12.354,12.354,0,0,0,12.34,12.339h89.849A12.354,12.354,0,0,0,114.529,193v-57.5Z" transform="translate(0 -55.294)" fill="#0091ff"/>
    </g>
    <circle id="Ellipse_15" data-name="Ellipse 15" cx="24" cy="24" r="24" transform="translate(936 631)" fill="#0075ce"/>
    <path id="checked_1_" data-name="checked (1)" d="M0,75.428l9.245,9.263L27,66.956l-2.549-2.513L9.245,79.629,2.513,72.9Z" transform="translate(946.5 580.057)" fill="#fff" stroke="#fff" stroke-width="1"/>
  </g>
</svg>
