<svg xmlns="http://www.w3.org/2000/svg" width="20.991" height="22.39" viewBox="0 0 20.991 22.39">
  <g id="Fuel" transform="translate(-16)">
    <path id="Path_2551" data-name="Path 2551" d="M120.4,80.7a.7.7,0,0,0-.7-.7h-7a.7.7,0,0,0-.7.7v5.6a.7.7,0,0,0,.7.7h7a.7.7,0,0,0,.7-.7ZM119,85.6h-5.6V81.4H119Z" transform="translate(-91.802 -76.502)" fill="#535050"/>
    <path id="Path_2552" data-name="Path 2552" d="M36.62,4.961l-2.79-1.4a.7.7,0,1,0-.62,1.252l1.063.531a.706.706,0,0,0-.065.243,2.25,2.25,0,0,0,1.383,1.97v8.525a.7.7,0,0,1-1.4,0v-5.6a3.716,3.716,0,0,0-2.8-3.428V2.789A2.765,2.765,0,0,0,28.628,0h-8.4A2.822,2.822,0,0,0,17.4,2.789v15.66l-1.013.506a.7.7,0,0,0-.387.626v2.1a.738.738,0,0,0,.733.71H32.126a.681.681,0,0,0,.666-.71v-2.1a.7.7,0,0,0-.387-.626l-1.013-.506V8.515a2.265,2.265,0,0,1,1.4,1.97v5.6a2.1,2.1,0,1,0,4.2,0V5.587A.685.685,0,0,0,36.62,4.961ZM31.393,20.991H17.4v-.977l1.013-.506a.7.7,0,0,0,.387-.626V2.788A1.421,1.421,0,0,1,20.232,1.4h8.4a1.364,1.364,0,0,1,1.366,1.389V18.881a.7.7,0,0,0,.387.626l1.013.506Z" fill="#535050"/>
  </g>
</svg>
