<svg xmlns="http://www.w3.org/2000/svg" width="23.792" height="45.116" viewBox="0 0 23.792 45.116">
  <g id="Heavy_luggage" data-name="Heavy luggage" transform="translate(-121)">
    <path id="Path_2565" data-name="Path 2565" d="M143.47,152H122.322A1.322,1.322,0,0,0,121,153.322v26.435a1.322,1.322,0,0,0,1.322,1.322h1.322V182.4a1.322,1.322,0,0,0,2.644,0v-1.322H139.5V182.4a1.322,1.322,0,0,0,2.644,0v-1.322h1.322a1.322,1.322,0,0,0,1.322-1.322V153.322A1.322,1.322,0,0,0,143.47,152Zm-13.218,22.47a1.322,1.322,0,0,1-2.644,0V158.609a1.322,1.322,0,0,1,2.644,0Zm7.931,0a1.322,1.322,0,0,1-2.644,0V158.609a1.322,1.322,0,0,1,2.644,0Z" transform="translate(0 -138.606)" fill="#9c9c9c"/>
    <path id="Path_2566" data-name="Path 2566" d="M183.644,3.51a9.509,9.509,0,0,1,7.931,0V10.75h2.644V2.644a1.322,1.322,0,0,0-.73-1.183,12.556,12.556,0,0,0-11.757,0A1.322,1.322,0,0,0,181,2.644V10.75h2.644Z" transform="translate(-54.713)" fill="#9c9c9c"/>
  </g>
</svg>
