<svg xmlns="http://www.w3.org/2000/svg" width="32.844" height="26.023" viewBox="0 0 32.844 26.023">
  <g id="Medium_luggage" data-name="Medium luggage" transform="translate(0 -53.164)">
    <g id="Group_17" data-name="Group 17" transform="translate(7.779 53.164)">
      <g id="Group_16" data-name="Group 16" transform="translate(0 0)">
        <path id="Path_226" data-name="Path 226" d="M135.619,57.838V54.2a1.033,1.033,0,0,0-1.033-1.033h-9.362a1.033,1.033,0,0,0-1.033,1.033v3.641h-2.929V79.187h17.286V57.838Zm-2.066-.008h-7.3v-2.6h7.3v2.6Z" transform="translate(-121.262 -53.164)" fill="#9c9c9c"/>
      </g>
    </g>
    <g id="Group_19" data-name="Group 19" transform="translate(0 57.838)">
      <g id="Group_18" data-name="Group 18" transform="translate(0 0)">
        <path id="Path_227" data-name="Path 227" d="M3.512,126.02A3.515,3.515,0,0,0,0,129.531v14.327a3.515,3.515,0,0,0,3.512,3.511h2.2V126.02Z" transform="translate(0 -126.02)" fill="#9c9c9c"/>
      </g>
    </g>
    <g id="Group_21" data-name="Group 21" transform="translate(27.131 57.838)">
      <g id="Group_20" data-name="Group 20" transform="translate(0 0)">
        <path id="Path_228" data-name="Path 228" d="M425.148,126.02h-2.2v21.35h2.2a3.516,3.516,0,0,0,3.512-3.511V129.531A3.516,3.516,0,0,0,425.148,126.02Z" transform="translate(-422.947 -126.02)" fill="#9c9c9c"/>
      </g>
    </g>
  </g>
</svg>
