<svg xmlns="http://www.w3.org/2000/svg" width="14.232" height="22.345" viewBox="0 0 14.232 22.345">
  <path id="Seats" d="M73.469,21.777a.568.568,0,0,1-.568.568H69.829a.568.568,0,1,1,0-1.136H72.9A.568.568,0,0,1,73.469,21.777Zm5.012-5.428v1.637a2.208,2.208,0,0,1-2.205,2.205H66.454a2.208,2.208,0,0,1-2.205-2.205V16.349a.568.568,0,0,1,.568-.568h.151c0-.016,0-.033,0-.049V14.209a.557.557,0,0,1,.007-.1.569.569,0,0,1,.356-.443q.338-.14.67-.29V6.434a2.682,2.682,0,0,1,1.742-2.5c0-.031,0-.062,0-.093v-1.4A2.438,2.438,0,0,1,70.174,0h2.382a2.438,2.438,0,0,1,2.436,2.436v1.4q0,.047,0,.093a2.678,2.678,0,0,1,1.054.717l.03-.057a.568.568,0,1,1,1.005.53,18.753,18.753,0,0,1-4.59,5.551A25.3,25.3,0,0,1,67.134,14.1v1.679H75.6V8.942a.568.568,0,1,1,1.136,0v6.839h1.181A.568.568,0,0,1,78.481,16.349ZM68.875,3.839a1.3,1.3,0,0,0,.044.337c0,.014.009.028.012.042a1.3,1.3,0,0,0,1.243.92h2.382a1.3,1.3,0,0,0,1.243-.92q.005-.022.012-.043a1.3,1.3,0,0,0,.044-.336v-1.4a1.3,1.3,0,0,0-1.3-1.3H70.174a1.3,1.3,0,0,0-1.3,1.3Zm-1.741,8.995a21.287,21.287,0,0,0,8.281-7.118,1.546,1.546,0,0,0-.737-.684,2.437,2.437,0,0,1-2.123,1.243H70.174a2.437,2.437,0,0,1-2.123-1.243,1.539,1.539,0,0,0-.917,1.4Zm10.211,4.084H65.385v1.069a1.07,1.07,0,0,0,1.069,1.069h9.822a1.07,1.07,0,0,0,1.069-1.069Z" transform="translate(-64.249)" fill="#535050"/>
</svg>
