<svg xmlns="http://www.w3.org/2000/svg" width="17.474" height="22.945" viewBox="0 0 17.474 22.945">
  <g id="Transmission" transform="translate(-1.665 -0.068)">
    <g id="Group_68" data-name="Group 68" transform="translate(3.585 1.116)">
      <path id="Path_273" data-name="Path 273" d="M65.62,19.565v9.8H79.252v10.5" transform="translate(-65.62 -19.41)" fill="none" stroke="#535050" stroke-miterlimit="10" stroke-width="1.2"/>
    </g>
    <g id="Group_67" data-name="Group 67" transform="translate(10.387 1.116)">
      <line id="Line_30" data-name="Line 30" y2="20.453" fill="none" stroke="#535050" stroke-miterlimit="10" stroke-width="1.2"/>
    </g>
    <g id="Group_66" data-name="Group 66" transform="translate(8.46 19.17)">
      <path id="Path_274" data-name="Path 274" d="M139.773,255.262a1.922,1.922,0,1,1-1.922-1.922,1.922,1.922,0,0,1,1.922,1.922" transform="translate(-135.93 -253.34)" fill="#535050"/>
    </g>
    <g id="Group_65" data-name="Group 65" transform="translate(15.715 19.59)">
      <path id="Path_275" data-name="Path 275" d="M224.633,255.262a1.922,1.922,0,1,1-1.922-1.922,1.922,1.922,0,0,1,1.922,1.922" transform="translate(-221.21 -253.76)" fill="#535050"/>
    </g>
    <g id="Group_64" data-name="Group 64" transform="translate(1.665 0.068)">
      <path id="Path_276" data-name="Path 276" d="M55.39,18.09a1.92,1.92,0,1,1-1.92-1.92,1.92,1.92,0,0,1,1.92,1.92" transform="translate(-51.55 -16.17)" fill="#535050"/>
    </g>
    <g id="Group_63" data-name="Group 63" transform="translate(8.503 0.152)">
      <path id="Path_277" data-name="Path 277" d="M139.77,18.61a1.92,1.92,0,1,1-1.92-1.92,1.92,1.92,0,0,1,1.92,1.92" transform="translate(-135.93 -16.69)" fill="#535050"/>
    </g>
    <g id="Group_62" data-name="Group 62" transform="translate(15.714 0.486)">
      <path id="Path_278" data-name="Path 278" d="M224.63,18.09a1.92,1.92,0,1,1-1.92-1.92,1.92,1.92,0,0,1,1.92,1.92" transform="translate(-221.208 -16.588)" fill="#535050"/>
    </g>
  </g>
</svg>
