<svg xmlns="http://www.w3.org/2000/svg" width="26.018" height="26.018" viewBox="0 0 26.018 26.018">
  <g id="Vehicle_year" data-name="Vehicle year" transform="translate(-1174 -832)">
    <path id="_002-calendar" data-name="002-calendar" d="M22.766,3.252H21.682V1.084A1.085,1.085,0,0,0,20.6,0H19.514A1.084,1.084,0,0,0,18.43,1.084V3.252H7.589V1.084A1.084,1.084,0,0,0,6.5,0H5.421A1.085,1.085,0,0,0,4.336,1.084V3.252H3.252A3.256,3.256,0,0,0,0,6.5V22.766a3.256,3.256,0,0,0,3.252,3.252H22.766a3.256,3.256,0,0,0,3.252-3.252V6.5A3.256,3.256,0,0,0,22.766,3.252ZM23.85,22.766a1.086,1.086,0,0,1-1.084,1.084H3.252a1.086,1.086,0,0,1-1.084-1.084V10.884H23.85Zm0,0" transform="translate(1174 832)" fill="#9c9c9c"/>
    <path id="car" d="M11.886,3.956l-.9-2.864A1.589,1.589,0,0,0,9.445,0H3.41A1.589,1.589,0,0,0,1.87,1.092l-.9,2.864A1.533,1.533,0,0,0,0,5.361V8.424a.785.785,0,0,0,.8.766h0v.766a.785.785,0,0,0,.8.766h.8a.785.785,0,0,0,.8-.766V9.19H9.641v.766a.785.785,0,0,0,.8.766h.8a.785.785,0,0,0,.8-.766V9.19h0a.785.785,0,0,0,.8-.766V5.361a1.533,1.533,0,0,0-.969-1.4ZM3.41,1.532H9.445l.723,2.3H2.687l.723-2.3Zm-.2,5.744a.767.767,0,1,1,0-1.532.767.767,0,1,1,0,1.532Zm6.427,0a.767.767,0,1,1,.8-.766A.785.785,0,0,1,9.641,7.275Z" transform="translate(1180.292 844.13)" fill="#9c9c9c"/>
  </g>
</svg>
