<svg xmlns="http://www.w3.org/2000/svg" width="50" height="50" viewBox="0 0 50 50">
  <g id="Group_11443" data-name="Group 11443" transform="translate(5511 -16983)">
    <path id="Path_25584" data-name="Path 25584" d="M25,50A25,25,0,0,1,7.322,7.322,25,25,0,0,1,42.678,42.678,24.836,24.836,0,0,1,25,50ZM25,3.125A21.875,21.875,0,1,0,46.875,25,21.9,21.9,0,0,0,25,3.125Z" transform="translate(-5511 16983)" fill="#555" opacity="0"/>
    <g id="Group_11442" data-name="Group 11442" transform="translate(-3.485 -5.953)">
      <path id="Path_25585" data-name="Path 25585" d="M186.93,133.163a2.186,2.186,0,0,1-2.186-2.186,20.522,20.522,0,0,1,6.051-14.607,12.845,12.845,0,0,0,3.787-9.142,6.863,6.863,0,0,0-6.856-6.856h-.5a6.863,6.863,0,0,0-6.856,6.856v.8a2.186,2.186,0,1,1-4.372,0v-.8A11.24,11.24,0,0,1,187.228,96h.5a11.24,11.24,0,0,1,11.228,11.228,17.188,17.188,0,0,1-5.067,12.234,16.178,16.178,0,0,0-4.77,11.516A2.186,2.186,0,0,1,186.93,133.163Z" transform="translate(-5669.793 16895.395)" fill="#555"/>
      <path id="Path_25586" data-name="Path 25586" d="M242.2,404.372a2.186,2.186,0,1,1,0-4.372h0a2.186,2.186,0,1,1,0,4.372Z" transform="translate(-5725.062 16632.949)" fill="#555"/>
    </g>
  </g>
</svg>
