<svg xmlns="http://www.w3.org/2000/svg" width="24.891" height="26.204" viewBox="0 0 24.891 26.204">
  <g id="AC" transform="translate(-373.929 -178.343)">
    <path id="Path_236" data-name="Path 236" d="M394.98,182.551l-1.642-.44-1.062,3.964-2.609,1.506-1.592-.919v-3.013l2.9-2.9-2.4-2.4-1.2,1.2h-1.992l-1.2-1.2-1.2,1.2-1.2,1.2,2.9,2.9v3.013l-1.592.919-2.609-1.506-1.062-3.964-1.642.44-1.642.44.44,1.642-1,1.725-1.642.44.88,3.284,3.964-1.062,2.609,1.507v1.838l-2.609,1.507-3.964-1.062-.88,3.284,1.642.44,1,1.725-.44,1.642,1.642.44,1.642.44,1.062-3.964,2.609-1.506,1.592.919v3.013l-2.9,2.9,1.2,1.2,1.2,1.2,1.2-1.2h1.992l1.2,1.2,2.4-2.4-2.9-2.9v-3.013l1.592-.919,2.609,1.506,1.062,3.964,1.642-.44,1.642-.44-.44-1.642,1-1.725,1.642-.44-.44-1.642-.44-1.642-3.964,1.062-2.609-1.507v-1.838l2.609-1.507,3.964,1.062.44-1.642.44-1.642-1.642-.44-1-1.725.44-1.642Z" transform="translate(0)" fill="#9c9c9c"/>
  </g>
</svg>
