<svg xmlns="http://www.w3.org/2000/svg" width="28.062" height="26.097" viewBox="0 0 28.062 26.097">
  <g id="Car_Gear" data-name="Car Gear" transform="translate(-87.969 26.049)">
    <path id="Path_237" data-name="Path 237" d="M48.061,25.187a3.1,3.1,0,0,1-2.385,2.993v6.969a.719.719,0,0,1-.7.7H34.732v6.267a3.08,3.08,0,0,1-.7,6.08,3.054,3.054,0,0,1-3.087-3.087,3.1,3.1,0,0,1,2.385-2.993V35.85H23.788v6.267a3.08,3.08,0,0,1-.7,6.08A3.054,3.054,0,0,1,20,45.11a3.1,3.1,0,0,1,2.385-2.993V28.18a3.08,3.08,0,0,1,.7-6.08,3.054,3.054,0,0,1,3.087,3.087,3.1,3.1,0,0,1-2.385,2.993v6.267h9.541V28.18a3.08,3.08,0,0,1,.7-6.08,3.054,3.054,0,0,1,3.087,3.087,3.1,3.1,0,0,1-2.385,2.993v6.267h9.541V28.18a3.08,3.08,0,0,1,.7-6.08A3.054,3.054,0,0,1,48.061,25.187Z" transform="translate(67.969 -48.149)" fill="#9c9c9c"/>
  </g>
</svg>
