<svg xmlns="http://www.w3.org/2000/svg" width="31.65" height="24.392" viewBox="0 0 31.65 24.392">
  <g id="Arrow" transform="translate(45.825 -76.804)">
    <g id="Group_23" data-name="Group 23" transform="translate(-45.825 76.804)">
      <path id="Path_238" data-name="Path 238" d="M6.742,5A1.742,1.742,0,0,1,8.485,6.742v12.2H30.7l-4-4A1.742,1.742,0,1,1,29.17,12.48l6.969,6.969a1.742,1.742,0,0,1,0,2.464L29.17,28.882a1.742,1.742,0,1,1-2.464-2.464l4-4H6.742A1.742,1.742,0,0,1,5,20.681V6.742A1.742,1.742,0,0,1,6.742,5Z" transform="translate(-5 -5)" fill="#0091ff"/>
    </g>
  </g>
</svg>
