<svg xmlns="http://www.w3.org/2000/svg" width="182.699" height="138.039" viewBox="0 0 182.699 138.039">
  <g id="Group_24" data-name="Group 24" transform="translate(-5 -968.362)">
    <path id="Path_240" data-name="Path 240" d="M17.18,968.362A12.244,12.244,0,0,0,5,980.542v113.679a12.244,12.244,0,0,0,12.18,12.18H175.519a12.244,12.244,0,0,0,12.18-12.18V980.542a12.244,12.244,0,0,0-12.18-12.18Zm0,8.12H175.519a3.965,3.965,0,0,1,4.06,4.06V1077.6l-35.588-38.95a4.12,4.12,0,0,0-5.963,0l-29.054,30.831-42.059-47.007a4.036,4.036,0,0,0-6.027-.063L13.12,1073.731V980.542a3.965,3.965,0,0,1,4.06-4.06Zm93.379,20.3a16.24,16.24,0,1,0,16.24,16.24A16.3,16.3,0,0,0,110.559,996.782Zm0,8.12a8.12,8.12,0,1,1-8.12,8.12A8.059,8.059,0,0,1,110.559,1004.9Zm-46.753,26.326,60.011,67.053H17.18a3.965,3.965,0,0,1-4.06-4.06v-8.564Zm77.139,16.177,38.633,42.249v4.567a3.965,3.965,0,0,1-4.06,4.06h-40.79l-20.3-22.71Z" transform="translate(0 0)"/>
  </g>
</svg>
